<svg width="1920" height="960" viewBox="0 0 1920 960" fill="none" xmlns="http://www.w3.org/2000/svg">
<rect width="1920" height="960" fill="url(#paint0_linear_28_105)"/>
<ellipse cx="1029.52" cy="352.393" rx="544.078" ry="183.268" transform="rotate(-14.3496 1029.52 352.393)" fill="white"/>
<path d="M1640.53 183.132C1645.95 204.325 1638.39 227.851 1619.89 252.294C1601.39 276.732 1572.02 302.016 1534 326.676C1457.96 375.994 1347.4 422.756 1220.36 455.255C1093.33 487.753 973.9 499.825 883.515 493.082C838.319 489.711 800.415 481.637 772.457 469.082C744.494 456.525 726.56 439.522 721.138 418.33C715.717 397.137 723.283 373.611 741.781 349.168C760.275 324.73 789.646 299.446 827.67 274.786C903.714 225.468 1014.27 178.706 1141.3 146.207C1268.34 113.709 1387.77 101.637 1478.15 108.38C1523.35 111.751 1561.25 119.824 1589.21 132.379C1617.18 144.937 1635.11 161.94 1640.53 183.132Z" stroke="white"/>
<path d="M528 102L600.746 225H455.254L528 102Z" fill="white"/>
<path d="M478.005 245.5L562 102.985L645.995 245.5H478.005Z" stroke="#8B8B8B"/>
<circle cx="625" cy="499" r="220" transform="rotate(-90 625 499)" fill="url(#paint1_linear_28_105)"/>
<ellipse cx="1428.44" cy="553.539" rx="420.016" ry="304.196" transform="rotate(-165 1428.44 553.539)" fill="url(#paint2_linear_28_105)"/>
<path d="M1631.88 378.225C1632.01 377.687 1631.67 377.15 1631.13 377.026L1622.36 375.001C1621.83 374.877 1621.29 375.212 1621.16 375.75C1621.04 376.289 1621.38 376.826 1621.91 376.95L1629.71 378.749L1627.91 386.544C1627.79 387.082 1628.12 387.619 1628.66 387.744C1629.2 387.868 1629.73 387.532 1629.86 386.994L1631.88 378.225ZM1277.53 599.995L1631.44 378.848L1630.38 377.152L1276.47 598.298L1277.53 599.995Z" fill="white"/>
<path d="M108.418 612.936C108.291 613.474 108.623 614.012 109.161 614.14L117.919 616.213C118.456 616.34 118.995 616.007 119.122 615.47C119.249 614.932 118.917 614.394 118.379 614.266L110.595 612.424L112.437 604.639C112.564 604.101 112.232 603.563 111.694 603.435C111.157 603.308 110.618 603.641 110.491 604.178L108.418 612.936ZM463.991 393.129L108.866 612.316L109.916 614.017L465.042 394.831L463.991 393.129Z" fill="white"/>
<line x1="1220.74" y1="607.45" x2="1519.8" y2="420.576" stroke="#5F5F5F"/>
<line x1="215.735" y1="532.45" x2="514.797" y2="345.576" stroke="#5F5F5F"/>
<path d="M705.992 315.9H659.592C657.992 315.9 656.826 315.533 656.092 314.8C655.359 314.067 654.992 312.9 654.992 311.3V246.5C654.992 245.633 655.092 244.9 655.292 244.3C655.559 243.7 655.926 243.2 656.392 242.8L669.292 231.9C669.626 231.633 670.059 231.433 670.592 231.3C671.192 231.1 671.826 231 672.492 231H718.892C720.492 231 721.659 231.367 722.392 232.1C723.126 232.833 723.492 234 723.492 235.6V247.3C723.492 248.167 723.359 248.9 723.092 249.5C722.892 250.1 722.559 250.6 722.092 251L713.492 258.1C714.159 258.433 714.626 258.933 714.892 259.6C715.226 260.267 715.392 261.133 715.392 262.2V272.9C715.392 273.767 715.259 274.5 714.992 275.1C714.792 275.7 714.459 276.2 713.992 276.6L705.092 284.1H718.892C720.492 284.1 721.659 284.467 722.392 285.2C723.126 285.933 723.492 287.1 723.492 288.7V300.4C723.492 301.267 723.359 302 723.092 302.6C722.892 303.2 722.559 303.7 722.092 304.1L709.092 314.9C708.826 315.167 708.392 315.4 707.792 315.6C707.259 315.8 706.659 315.9 705.992 315.9ZM718.892 304C720.159 304 721.059 303.733 721.592 303.2C722.192 302.6 722.492 301.667 722.492 300.4V288.7C722.492 287.433 722.192 286.533 721.592 286C721.059 285.4 720.159 285.1 718.892 285.1H691.292V276.5H710.792C712.059 276.5 712.959 276.233 713.492 275.7C714.092 275.1 714.392 274.167 714.392 272.9V262.2C714.392 260.933 714.092 260.033 713.492 259.5C712.959 258.9 712.059 258.6 710.792 258.6H691.292V250.9H718.892C720.159 250.9 721.059 250.633 721.592 250.1C722.192 249.5 722.492 248.567 722.492 247.3V235.6C722.492 234.333 722.192 233.433 721.592 232.9C721.059 232.3 720.159 232 718.892 232H672.492C671.226 232 670.292 232.3 669.692 232.9C669.159 233.433 668.892 234.333 668.892 235.6V300.4C668.892 301.667 669.159 302.6 669.692 303.2C670.292 303.733 671.226 304 672.492 304H718.892ZM713.492 294V295H679.792V241H713.492V242H680.792V267.1H705.392V268.1H680.792V294H713.492ZM744.983 315.9C743.449 315.9 742.216 315.6 741.283 315C740.349 314.467 739.583 313.467 738.983 312L729.183 287.5C728.583 285.967 728.049 284.667 727.583 283.6C727.183 282.467 726.849 281.4 726.583 280.4C726.316 279.333 726.116 278.233 725.983 277.1C725.916 275.9 725.883 274.5 725.883 272.9V246.5C725.883 245.633 725.983 244.9 726.183 244.3C726.449 243.7 726.816 243.2 727.283 242.8L740.183 231.9C740.516 231.633 740.949 231.433 741.483 231.3C742.083 231.1 742.716 231 743.383 231H759.283C760.883 231 762.083 231.4 762.883 232.2C763.749 232.933 764.183 234.067 764.183 235.6V263.2C764.183 263.867 764.249 264.5 764.383 265.1C764.516 265.7 764.683 266.333 764.883 267L765.183 267.7V246.5C765.183 245.633 765.283 244.9 765.483 244.3C765.749 243.7 766.116 243.2 766.583 242.8L779.483 231.9C779.816 231.633 780.249 231.433 780.783 231.3C781.383 231.1 782.016 231 782.683 231H798.383C800.049 231 801.216 231.367 801.883 232.1C802.616 232.833 802.983 234 802.983 235.6V262C802.983 263.6 802.916 265 802.783 266.2C802.716 267.333 802.549 268.433 802.283 269.5C802.016 270.5 801.649 271.567 801.183 272.7C800.783 273.767 800.283 275.067 799.683 276.6L789.883 301.1C789.683 301.7 789.416 302.233 789.083 302.7C788.749 303.167 788.416 303.533 788.083 303.8L775.183 314.5C774.649 314.967 774.016 315.3 773.283 315.5C772.616 315.767 771.849 315.9 770.983 315.9H744.983ZM783.883 304C785.149 304 786.183 303.767 786.983 303.3C787.849 302.833 788.516 301.967 788.983 300.7L798.783 276.2C799.383 274.733 799.883 273.467 800.283 272.4C800.683 271.267 801.016 270.2 801.283 269.2C801.549 268.2 801.716 267.167 801.783 266.1C801.916 264.967 801.983 263.6 801.983 262V235.6C801.983 234.333 801.683 233.433 801.083 232.9C800.549 232.3 799.649 232 798.383 232H782.683C781.416 232 780.483 232.3 779.883 232.9C779.349 233.433 779.083 234.333 779.083 235.6V263.1C779.083 263.767 779.016 264.433 778.883 265.1C778.749 265.767 778.549 266.467 778.283 267.2L773.583 281.3C773.383 281.967 773.149 282.433 772.883 282.7C772.616 282.9 772.216 283 771.683 283H770.583C770.049 283 769.649 282.9 769.383 282.7C769.116 282.433 768.883 281.967 768.683 281.3L763.983 267.3C763.716 266.567 763.516 265.867 763.383 265.2C763.249 264.533 763.183 263.867 763.183 263.2V235.6C763.183 234.333 762.849 233.433 762.183 232.9C761.516 232.3 760.549 232 759.283 232H743.383C742.116 232 741.183 232.3 740.583 232.9C740.049 233.433 739.783 234.333 739.783 235.6V262C739.783 263.6 739.816 264.967 739.883 266.1C740.016 267.167 740.216 268.2 740.483 269.2C740.749 270.2 741.083 271.267 741.483 272.4C741.883 273.467 742.383 274.733 742.983 276.2L752.783 300.7C753.249 301.967 753.883 302.833 754.683 303.3C755.549 303.767 756.616 304 757.883 304H783.883ZM751.083 241H752.083V262.6C752.083 264.333 752.216 266 752.483 267.6C752.749 269.133 753.149 270.567 753.683 271.9L760.283 287.9C760.949 289.633 761.683 291.1 762.483 292.3C763.349 293.433 764.716 294 766.583 294H775.383C777.249 294 778.583 293.433 779.383 292.3C780.249 291.1 781.016 289.633 781.683 287.9L788.283 271.9C788.816 270.567 789.216 269.133 789.483 267.6C789.749 266 789.883 264.333 789.883 262.6V241H790.883V262.6C790.883 264.467 790.749 266.2 790.483 267.8C790.283 269.333 789.883 270.833 789.283 272.3L782.683 288.3C781.883 290.233 780.983 291.833 779.983 293.1C778.983 294.367 777.449 295 775.383 295H766.583C764.516 295 762.983 294.367 761.983 293.1C760.983 291.833 760.083 290.233 759.283 288.3L752.683 272.3C752.083 270.833 751.649 269.333 751.383 267.8C751.183 266.2 751.083 264.467 751.083 262.6V241ZM858.391 315.9H811.991C810.391 315.9 809.224 315.533 808.491 314.8C807.757 314.067 807.391 312.9 807.391 311.3V246.5C807.391 245.633 807.491 244.9 807.691 244.3C807.957 243.7 808.324 243.2 808.791 242.8L821.691 231.9C822.024 231.633 822.457 231.433 822.991 231.3C823.591 231.1 824.224 231 824.891 231H871.291C872.891 231 874.057 231.367 874.791 232.1C875.524 232.833 875.891 234 875.891 235.6V247.3C875.891 248.167 875.757 248.9 875.491 249.5C875.291 250.1 874.957 250.6 874.491 251L865.891 258.1C866.557 258.433 867.024 258.933 867.291 259.6C867.624 260.267 867.791 261.133 867.791 262.2V272.9C867.791 273.767 867.657 274.5 867.391 275.1C867.191 275.7 866.857 276.2 866.391 276.6L857.491 284.1H871.291C872.891 284.1 874.057 284.467 874.791 285.2C875.524 285.933 875.891 287.1 875.891 288.7V300.4C875.891 301.267 875.757 302 875.491 302.6C875.291 303.2 874.957 303.7 874.491 304.1L861.491 314.9C861.224 315.167 860.791 315.4 860.191 315.6C859.657 315.8 859.057 315.9 858.391 315.9ZM871.291 304C872.557 304 873.457 303.733 873.991 303.2C874.591 302.6 874.891 301.667 874.891 300.4V288.7C874.891 287.433 874.591 286.533 873.991 286C873.457 285.4 872.557 285.1 871.291 285.1H843.691V276.5H863.191C864.457 276.5 865.357 276.233 865.891 275.7C866.491 275.1 866.791 274.167 866.791 272.9V262.2C866.791 260.933 866.491 260.033 865.891 259.5C865.357 258.9 864.457 258.6 863.191 258.6H843.691V250.9H871.291C872.557 250.9 873.457 250.633 873.991 250.1C874.591 249.5 874.891 248.567 874.891 247.3V235.6C874.891 234.333 874.591 233.433 873.991 232.9C873.457 232.3 872.557 232 871.291 232H824.891C823.624 232 822.691 232.3 822.091 232.9C821.557 233.433 821.291 234.333 821.291 235.6V300.4C821.291 301.667 821.557 302.6 822.091 303.2C822.691 303.733 823.624 304 824.891 304H871.291ZM865.891 294V295H832.191V241H865.891V242H833.191V267.1H857.791V268.1H833.191V294H865.891ZM927.281 242H905.481V270.9H927.281C931.415 270.9 934.181 269.9 935.581 267.9C936.981 265.9 937.681 263.067 937.681 259.4V252.4C937.681 249.333 936.815 246.833 935.081 244.9C933.415 242.967 930.815 242 927.281 242ZM916.281 250H923.781C925.515 250 926.681 250.467 927.281 251.4C927.881 252.267 928.181 253.367 928.181 254.7V258.1C928.181 259.433 927.881 260.567 927.281 261.5C926.681 262.367 925.515 262.8 923.781 262.8H916.281V250ZM905.481 295H904.481V241H927.281C931.148 241 934.015 242.1 935.881 244.3C937.748 246.433 938.681 249.133 938.681 252.4V259.3C938.681 262.367 938.281 264.9 937.481 266.9C936.681 268.833 935.081 270.167 932.681 270.9H933.781C937.848 270.9 940.881 271.833 942.881 273.7C944.881 275.5 945.881 278.133 945.881 281.6V295H944.881V281.6C944.881 278.333 943.981 275.9 942.181 274.3C940.381 272.633 937.581 271.8 933.781 271.8H905.481V295ZM912.681 304C913.948 304 914.848 303.733 915.381 303.2C915.981 302.6 916.281 301.667 916.281 300.4V280.8H930.281C931.681 280.8 932.648 281.167 933.181 281.9C933.781 282.567 934.081 283.633 934.081 285.1V300.4C934.081 301.667 934.348 302.6 934.881 303.2C935.481 303.733 936.415 304 937.681 304H953.181C954.448 304 955.348 303.733 955.881 303.2C956.481 302.6 956.781 301.667 956.781 300.4V279.2C956.781 275 955.648 271.633 953.381 269.1C951.181 266.567 948.281 265.1 944.681 264.7C946.748 263.833 948.181 262.433 948.981 260.5C949.848 258.5 950.281 256.1 950.281 253.3V248.7C950.281 243.767 948.848 239.767 945.981 236.7C943.181 233.567 938.048 232 930.581 232H897.281C896.015 232 895.081 232.3 894.481 232.9C893.948 233.433 893.681 234.333 893.681 235.6V300.4C893.681 301.667 893.948 302.6 894.481 303.2C895.081 303.733 896.015 304 897.281 304H912.681ZM915.881 304.1L902.881 314.9C902.615 315.167 902.181 315.4 901.581 315.6C901.048 315.8 900.448 315.9 899.781 315.9H884.381C882.781 315.9 881.615 315.533 880.881 314.8C880.148 314.067 879.781 312.9 879.781 311.3V246.5C879.781 245.633 879.881 244.9 880.081 244.3C880.348 243.7 880.715 243.2 881.181 242.8L894.081 231.9C894.415 231.633 894.848 231.433 895.381 231.3C895.981 231.1 896.615 231 897.281 231H930.581C938.515 231 943.948 232.667 946.881 236C949.815 239.267 951.281 243.5 951.281 248.7V253.3C951.281 255.767 950.981 257.933 950.381 259.8C949.781 261.6 948.815 263.067 947.481 264.2H947.381C950.515 265.067 953.015 266.8 954.881 269.4C956.815 272 957.781 275.267 957.781 279.2V300.4C957.781 301.267 957.648 302 957.381 302.6C957.181 303.2 956.848 303.7 956.381 304.1L943.381 314.9C943.115 315.167 942.681 315.4 942.081 315.6C941.548 315.8 940.948 315.9 940.281 315.9H924.781C923.181 315.9 922.015 315.533 921.281 314.8C920.548 314.067 920.181 312.9 920.181 311.3V296C920.181 294.933 919.981 294.133 919.581 293.6C919.181 293 918.448 292.7 917.381 292.7H917.281V300.4C917.281 301.267 917.148 302 916.881 302.6C916.681 303.2 916.348 303.7 915.881 304.1ZM995.531 315.9H979.331C977.665 315.9 976.465 315.533 975.731 314.8C975.065 314.067 974.731 312.9 974.731 311.3V298.8L959.631 278.6C958.031 276.467 956.965 274.6 956.431 273C955.898 271.4 955.631 268.967 955.631 265.7V246.5C955.631 245.633 955.731 244.9 955.931 244.3C956.198 243.7 956.565 243.2 957.031 242.8L969.931 231.9C970.265 231.633 970.698 231.433 971.231 231.3C971.831 231.1 972.465 231 973.131 231H988.531C990.131 231 991.298 231.367 992.031 232.1C992.765 232.833 993.131 234 993.131 235.6V252C993.131 252.6 993.165 253.2 993.231 253.8C993.298 254.4 993.498 255.033 993.831 255.7L995.031 257.4V246.5C995.031 245.633 995.131 244.9 995.331 244.3C995.598 243.7 995.965 243.2 996.431 242.8L1009.33 231.9C1009.66 231.633 1010.1 231.433 1010.63 231.3C1011.23 231.1 1011.86 231 1012.53 231H1027.43C1029.03 231 1030.2 231.367 1030.93 232.1C1031.66 232.833 1032.03 234 1032.03 235.6V254.8C1032.03 258.067 1031.76 260.5 1031.23 262.1C1030.7 263.7 1029.63 265.567 1028.03 267.7L1013.03 288V300.4C1013.03 301.267 1012.9 302 1012.63 302.6C1012.43 303.2 1012.1 303.7 1011.63 304.1L998.631 314.9C998.365 315.167 997.931 315.4 997.331 315.6C996.798 315.8 996.198 315.9 995.531 315.9ZM1008.43 304C1009.7 304 1010.6 303.733 1011.13 303.2C1011.73 302.6 1012.03 301.667 1012.03 300.4V287.7L1027.23 267.1C1028.7 265.033 1029.7 263.233 1030.23 261.7C1030.76 260.167 1031.03 257.867 1031.03 254.8V235.6C1031.03 234.333 1030.73 233.433 1030.13 232.9C1029.6 232.3 1028.7 232 1027.43 232H1012.53C1011.26 232 1010.33 232.3 1009.73 232.9C1009.2 233.433 1008.93 234.333 1008.93 235.6V252C1008.93 252.667 1008.9 253.367 1008.83 254.1C1008.76 254.833 1008.5 255.533 1008.03 256.2L1003.43 263.4C1003.1 264 1002.73 264.433 1002.33 264.7C1002 264.967 1001.56 265.1 1001.03 265.1H1000.03C999.498 265.1 999.031 264.967 998.631 264.7C998.298 264.433 997.965 264 997.631 263.4L993.031 256.2C992.565 255.533 992.298 254.833 992.231 254.1C992.165 253.367 992.131 252.667 992.131 252V235.6C992.131 234.333 991.831 233.433 991.231 232.9C990.698 232.3 989.798 232 988.531 232H973.131C971.865 232 970.931 232.3 970.331 232.9C969.798 233.433 969.531 234.333 969.531 235.6V254.8C969.531 257.867 969.765 260.167 970.231 261.7C970.765 263.233 971.798 265.033 973.331 267.1L988.631 287.6V300.4C988.631 301.667 988.898 302.6 989.431 303.2C990.031 303.733 990.965 304 992.231 304H1008.43ZM1001.53 277.9H1000.83V295H999.831V277.9H998.831C997.365 277.9 996.031 277.567 994.831 276.9C993.698 276.233 992.598 275.167 991.531 273.7L981.831 260.2C981.098 259.2 980.665 258.033 980.531 256.7C980.398 255.367 980.331 253.967 980.331 252.5V241H981.331V252.5C981.331 253.9 981.398 255.233 981.531 256.5C981.665 257.7 982.065 258.8 982.731 259.8L992.431 273.3C993.298 274.633 994.298 275.567 995.431 276.1C996.565 276.633 997.698 276.9 998.831 276.9H1001.53C1002.8 276.9 1003.93 276.633 1004.93 276.1C1006 275.5 1007.03 274.567 1008.03 273.3L1018.03 259.8C1018.7 258.933 1019.1 257.867 1019.23 256.6C1019.36 255.267 1019.43 253.9 1019.43 252.5V241H1020.43V252.5C1020.43 253.967 1020.36 255.367 1020.23 256.7C1020.16 257.967 1019.73 259.133 1018.93 260.2L1008.93 273.7C1007.86 275.167 1006.73 276.233 1005.53 276.9C1004.4 277.567 1003.06 277.9 1001.53 277.9ZM1093 310.6C1090.93 312.333 1088.3 313.633 1085.1 314.5C1081.9 315.433 1078.13 315.9 1073.8 315.9H1040.1C1038.5 315.9 1037.33 315.533 1036.6 314.8C1035.87 314.067 1035.5 312.9 1035.5 311.3V246.5C1035.5 245.633 1035.6 244.9 1035.8 244.3C1036.07 243.7 1036.43 243.2 1036.9 242.8L1049.8 231.9C1050.13 231.633 1050.57 231.433 1051.1 231.3C1051.7 231.1 1052.33 231 1053 231H1086.7C1095.43 231 1101.87 232.767 1106 236.3C1110.2 239.833 1112.3 245.2 1112.3 252.4V283.6C1112.3 287.2 1111.77 290.367 1110.7 293.1C1109.63 295.767 1108.07 298 1106 299.8L1093 310.6ZM1086.7 304C1095.03 304 1101.2 302.333 1105.2 299C1109.27 295.667 1111.3 290.533 1111.3 283.6V252.4C1111.3 245.467 1109.27 240.333 1105.2 237C1101.2 233.667 1095.03 232 1086.7 232H1053C1051.73 232 1050.8 232.3 1050.2 232.9C1049.67 233.433 1049.4 234.333 1049.4 235.6V300.4C1049.4 301.667 1049.67 302.6 1050.2 303.2C1050.8 303.733 1051.73 304 1053 304H1086.7ZM1060.3 295V241H1084.5C1087.9 241 1090.63 241.367 1092.7 242.1C1094.83 242.833 1096.47 243.833 1097.6 245.1C1098.73 246.3 1099.5 247.767 1099.9 249.5C1100.3 251.167 1100.5 252.967 1100.5 254.9V281.4C1100.5 283.333 1100.3 285.133 1099.9 286.8C1099.57 288.467 1098.83 289.9 1097.7 291.1C1096.57 292.3 1094.93 293.267 1092.8 294C1090.67 294.667 1087.9 295 1084.5 295H1060.3ZM1084.5 242H1061.3V294H1084.5C1087.7 294 1090.27 293.7 1092.2 293.1C1094.2 292.433 1095.73 291.567 1096.8 290.5C1097.87 289.367 1098.57 288.033 1098.9 286.5C1099.3 284.9 1099.5 283.2 1099.5 281.4V254.9C1099.5 253.1 1099.3 251.4 1098.9 249.8C1098.5 248.2 1097.77 246.833 1096.7 245.7C1095.63 244.567 1094.1 243.667 1092.1 243C1090.17 242.333 1087.63 242 1084.5 242ZM1072.1 251.1H1084C1085.6 251.1 1086.77 251.5 1087.5 252.3C1088.3 253.033 1088.7 254.233 1088.7 255.9V280.2C1088.7 281.867 1088.3 283.1 1087.5 283.9C1086.77 284.7 1085.6 285.1 1084 285.1H1072.1V251.1ZM1074.8 266.8C1074.8 265.933 1074.67 265.2 1074.4 264.6C1074.13 264 1073.7 263.567 1073.1 263.3V284.1H1074.8V266.8ZM1141.07 273.7V276.8H1180.07V273.7C1180.07 271.9 1179.9 270.233 1179.57 268.7C1179.3 267.167 1178.94 265.733 1178.47 264.4L1171.57 248.1C1170.84 246.367 1170.07 244.933 1169.27 243.8C1168.47 242.6 1167.14 242 1165.27 242H1155.47C1153.47 242 1152.07 242.6 1151.27 243.8C1150.47 244.933 1149.74 246.333 1149.07 248L1142.67 264.4C1142.2 265.733 1141.8 267.167 1141.47 268.7C1141.2 270.233 1141.07 271.9 1141.07 273.7ZM1157.07 253C1157.34 252.4 1157.6 251.967 1157.87 251.7C1158.2 251.433 1158.57 251.3 1158.97 251.3H1161.47C1161.87 251.3 1162.2 251.433 1162.47 251.7C1162.8 251.967 1163.1 252.4 1163.37 253L1168.07 268.2H1152.37L1157.07 253ZM1180.07 295V277.8H1141.07V295H1140.07V273.7C1140.07 271.833 1140.2 270.133 1140.47 268.6C1140.8 267 1141.24 265.467 1141.77 264L1148.17 247.6C1148.9 245.733 1149.74 244.167 1150.67 242.9C1151.6 241.633 1153.2 241 1155.47 241H1165.27C1167.47 241 1169 241.633 1169.87 242.9C1170.8 244.167 1171.67 245.767 1172.47 247.7L1179.37 264C1179.9 265.467 1180.3 267 1180.57 268.6C1180.9 270.133 1181.07 271.833 1181.07 273.7V295H1180.07ZM1151.37 300.4V286.4H1169.07V300.4C1169.07 301.667 1169.37 302.6 1169.97 303.2C1170.64 303.733 1171.64 304 1172.97 304H1188.07C1189.34 304 1190.24 303.733 1190.77 303.2C1191.37 302.6 1191.67 301.667 1191.67 300.4V274C1191.67 272 1191.34 269.7 1190.67 267.1C1190.07 264.5 1189.1 261.467 1187.77 258L1179.07 235.3C1178.67 234.167 1178.04 233.333 1177.17 232.8C1176.37 232.267 1175.34 232 1174.07 232H1147.17C1145.84 232 1144.74 232.267 1143.87 232.8C1143.07 233.333 1142.47 234.167 1142.07 235.3L1133.37 258C1132.04 261.467 1131.04 264.5 1130.37 267.1C1129.77 269.7 1129.47 272 1129.47 274V300.4C1129.47 301.667 1129.74 302.6 1130.27 303.2C1130.87 303.733 1131.8 304 1133.07 304H1147.77C1149.04 304 1149.94 303.733 1150.47 303.2C1151.07 302.6 1151.37 301.667 1151.37 300.4ZM1137.97 314.9C1137.7 315.167 1137.27 315.4 1136.67 315.6C1136.14 315.8 1135.54 315.9 1134.87 315.9H1120.17C1118.57 315.9 1117.4 315.533 1116.67 314.8C1115.94 314.067 1115.57 312.9 1115.57 311.3V284.9C1115.57 282.833 1115.87 280.5 1116.47 277.9C1117.14 275.233 1118.17 272.1 1119.57 268.5L1128.17 245.9C1128.37 245.3 1128.6 244.8 1128.87 244.4C1129.2 243.933 1129.54 243.533 1129.87 243.2L1129.97 243.1L1142.77 232.4C1143.3 231.933 1143.94 231.6 1144.67 231.4C1145.4 231.133 1146.24 231 1147.17 231H1174.07C1175.6 231 1176.84 231.333 1177.77 232C1178.77 232.6 1179.5 233.567 1179.97 234.9L1188.67 257.6C1190.07 261.2 1191.07 264.333 1191.67 267C1192.34 269.6 1192.67 271.933 1192.67 274V300.4C1192.67 301.267 1192.54 302 1192.27 302.6C1192.07 303.2 1191.74 303.7 1191.27 304.1L1178.27 314.9C1178 315.167 1177.57 315.4 1176.97 315.6C1176.44 315.8 1175.84 315.9 1175.17 315.9H1160.07C1158.4 315.9 1157.17 315.5 1156.37 314.7C1155.57 313.967 1155.17 312.833 1155.17 311.3V298.3H1152.37V300.4C1152.37 301.267 1152.24 302 1151.97 302.6C1151.77 303.2 1151.44 303.7 1150.97 304.1L1137.97 314.9ZM1232.04 315.9H1215.84C1214.17 315.9 1212.97 315.533 1212.24 314.8C1211.57 314.067 1211.24 312.9 1211.24 311.3V298.8L1196.14 278.6C1194.54 276.467 1193.47 274.6 1192.94 273C1192.41 271.4 1192.14 268.967 1192.14 265.7V246.5C1192.14 245.633 1192.24 244.9 1192.44 244.3C1192.71 243.7 1193.07 243.2 1193.54 242.8L1206.44 231.9C1206.77 231.633 1207.21 231.433 1207.74 231.3C1208.34 231.1 1208.97 231 1209.64 231H1225.04C1226.64 231 1227.81 231.367 1228.54 232.1C1229.27 232.833 1229.64 234 1229.64 235.6V252C1229.64 252.6 1229.67 253.2 1229.74 253.8C1229.81 254.4 1230.01 255.033 1230.34 255.7L1231.54 257.4V246.5C1231.54 245.633 1231.64 244.9 1231.84 244.3C1232.11 243.7 1232.47 243.2 1232.94 242.8L1245.84 231.9C1246.17 231.633 1246.61 231.433 1247.14 231.3C1247.74 231.1 1248.37 231 1249.04 231H1263.94C1265.54 231 1266.71 231.367 1267.44 232.1C1268.17 232.833 1268.54 234 1268.54 235.6V254.8C1268.54 258.067 1268.27 260.5 1267.74 262.1C1267.21 263.7 1266.14 265.567 1264.54 267.7L1249.54 288V300.4C1249.54 301.267 1249.41 302 1249.14 302.6C1248.94 303.2 1248.61 303.7 1248.14 304.1L1235.14 314.9C1234.87 315.167 1234.44 315.4 1233.84 315.6C1233.31 315.8 1232.71 315.9 1232.04 315.9ZM1244.94 304C1246.21 304 1247.11 303.733 1247.64 303.2C1248.24 302.6 1248.54 301.667 1248.54 300.4V287.7L1263.74 267.1C1265.21 265.033 1266.21 263.233 1266.74 261.7C1267.27 260.167 1267.54 257.867 1267.54 254.8V235.6C1267.54 234.333 1267.24 233.433 1266.64 232.9C1266.11 232.3 1265.21 232 1263.94 232H1249.04C1247.77 232 1246.84 232.3 1246.24 232.9C1245.71 233.433 1245.44 234.333 1245.44 235.6V252C1245.44 252.667 1245.41 253.367 1245.34 254.1C1245.27 254.833 1245.01 255.533 1244.54 256.2L1239.94 263.4C1239.61 264 1239.24 264.433 1238.84 264.7C1238.51 264.967 1238.07 265.1 1237.54 265.1H1236.54C1236.01 265.1 1235.54 264.967 1235.14 264.7C1234.81 264.433 1234.47 264 1234.14 263.4L1229.54 256.2C1229.07 255.533 1228.81 254.833 1228.74 254.1C1228.67 253.367 1228.64 252.667 1228.64 252V235.6C1228.64 234.333 1228.34 233.433 1227.74 232.9C1227.21 232.3 1226.31 232 1225.04 232H1209.64C1208.37 232 1207.44 232.3 1206.84 232.9C1206.31 233.433 1206.04 234.333 1206.04 235.6V254.8C1206.04 257.867 1206.27 260.167 1206.74 261.7C1207.27 263.233 1208.31 265.033 1209.84 267.1L1225.14 287.6V300.4C1225.14 301.667 1225.41 302.6 1225.94 303.2C1226.54 303.733 1227.47 304 1228.74 304H1244.94ZM1238.04 277.9H1237.34V295H1236.34V277.9H1235.34C1233.87 277.9 1232.54 277.567 1231.34 276.9C1230.21 276.233 1229.11 275.167 1228.04 273.7L1218.34 260.2C1217.61 259.2 1217.17 258.033 1217.04 256.7C1216.91 255.367 1216.84 253.967 1216.84 252.5V241H1217.84V252.5C1217.84 253.9 1217.91 255.233 1218.04 256.5C1218.17 257.7 1218.57 258.8 1219.24 259.8L1228.94 273.3C1229.81 274.633 1230.81 275.567 1231.94 276.1C1233.07 276.633 1234.21 276.9 1235.34 276.9H1238.04C1239.31 276.9 1240.44 276.633 1241.44 276.1C1242.51 275.5 1243.54 274.567 1244.54 273.3L1254.54 259.8C1255.21 258.933 1255.61 257.867 1255.74 256.6C1255.87 255.267 1255.94 253.9 1255.94 252.5V241H1256.94V252.5C1256.94 253.967 1256.87 255.367 1256.74 256.7C1256.67 257.967 1256.24 259.133 1255.44 260.2L1245.44 273.7C1244.37 275.167 1243.24 276.233 1242.04 276.9C1240.91 277.567 1239.57 277.9 1238.04 277.9ZM647.913 385.5C649.113 385.5 649.979 385.233 650.513 384.7C651.046 384.167 651.879 383.033 653.013 381.3L665.213 362.7C665.613 362.033 666.046 361.6 666.513 361.4C667.046 361.133 667.579 361 668.113 361H669.813C670.746 361 671.413 361.267 671.813 361.8C672.279 362.267 672.513 363.033 672.513 364.1V415H671.513V364.1C671.513 363.567 671.379 363.1 671.113 362.7C670.913 362.233 670.479 362 669.813 362H668.313C667.846 362 667.446 362.067 667.113 362.2C666.779 362.333 666.413 362.733 666.013 363.4L653.813 381.8C652.613 383.6 651.679 384.833 651.013 385.5C650.413 386.167 649.379 386.5 647.913 386.5C646.446 386.5 645.379 386.167 644.713 385.5C644.113 384.833 643.213 383.6 642.013 381.8L629.813 363.4C629.413 362.733 629.013 362.333 628.613 362.2C628.279 362.067 627.879 362 627.413 362H625.913C625.246 362 624.813 362.233 624.613 362.7C624.413 363.1 624.313 363.567 624.313 364.1V415H623.313V364.1C623.313 363.033 623.513 362.267 623.913 361.8C624.379 361.267 625.046 361 625.913 361H627.613C628.146 361 628.679 361.133 629.213 361.4C629.746 361.6 630.213 362.033 630.613 362.7L642.813 381.3C643.946 383.033 644.779 384.167 645.313 384.7C645.846 385.233 646.713 385.5 647.913 385.5ZM631.213 424C632.479 424 633.379 423.733 633.913 423.2C634.513 422.6 634.813 421.667 634.813 420.4V385.2L640.713 396.1C641.313 397.233 642.013 398.067 642.813 398.6C643.679 399.067 644.746 399.3 646.013 399.3H650.013C651.279 399.3 652.313 399.067 653.112 398.6C653.979 398.067 654.713 397.233 655.313 396.1L661.213 385.2V420.4C661.213 421.667 661.479 422.6 662.013 423.2C662.613 423.733 663.546 424 664.813 424H680.213C681.479 424 682.379 423.733 682.913 423.2C683.513 422.6 683.813 421.667 683.813 420.4V355.6C683.813 354.333 683.513 353.433 682.913 352.9C682.379 352.3 681.479 352 680.213 352H664.013C662.946 352 662.046 352.233 661.313 352.7C660.646 353.167 660.013 353.933 659.413 355L650.513 371.3C650.179 371.9 649.879 372.333 649.613 372.6C649.413 372.867 649.113 373 648.713 373H647.813C647.413 373 647.079 372.867 646.813 372.6C646.613 372.333 646.346 371.9 646.013 371.3L637.013 355C636.413 353.933 635.746 353.167 635.013 352.7C634.346 352.233 633.479 352 632.413 352H616.313C615.046 352 614.113 352.3 613.513 352.9C612.979 353.433 612.713 354.333 612.713 355.6V420.4C612.713 421.667 612.979 422.6 613.513 423.2C614.113 423.733 615.046 424 616.313 424H631.213ZM634.413 424.1L621.413 434.9C621.146 435.167 620.713 435.4 620.113 435.6C619.579 435.8 618.979 435.9 618.313 435.9H603.413C601.813 435.9 600.646 435.533 599.913 434.8C599.179 434.067 598.813 432.9 598.813 431.3V366.5C598.813 365.633 598.913 364.9 599.113 364.3C599.379 363.7 599.746 363.2 600.213 362.8L613.113 351.9C613.446 351.633 613.879 351.433 614.413 351.3C615.013 351.1 615.646 351 616.313 351H632.413C633.679 351 634.713 351.267 635.513 351.8C636.379 352.333 637.179 353.233 637.913 354.5L644.713 367L645.613 365.4C645.879 364.933 646.146 364.5 646.413 364.1C646.746 363.633 647.079 363.267 647.413 363L660.313 352.2C660.846 351.8 661.379 351.5 661.913 351.3C662.513 351.1 663.213 351 664.013 351H680.213C681.813 351 682.979 351.367 683.713 352.1C684.446 352.833 684.813 354 684.813 355.6V420.4C684.813 421.267 684.679 422 684.413 422.6C684.213 423.2 683.879 423.7 683.413 424.1L670.413 434.9C670.146 435.167 669.713 435.4 669.113 435.6C668.579 435.8 667.979 435.9 667.313 435.9H651.913C650.246 435.9 649.046 435.533 648.313 434.8C647.646 434.067 647.313 432.9 647.313 431.3V404.9L641.413 409.8C640.879 410.267 640.246 410.633 639.513 410.9C638.846 411.1 638.046 411.2 637.113 411.2H635.813V420.4C635.813 421.267 635.679 422 635.413 422.6C635.213 423.2 634.879 423.7 634.413 424.1ZM747.734 431.1C745.401 433.1 742.134 434.633 737.934 435.7C733.734 436.833 728.334 437.4 721.734 437.4C715.201 437.4 709.834 436.7 705.634 435.3C701.501 433.967 698.234 432.167 695.834 429.9C693.501 427.633 691.868 425.033 690.934 422.1C690.068 419.167 689.634 416.133 689.634 413V381.9C689.634 378.833 690.068 376 690.934 373.4C691.801 370.733 693.368 368.467 695.634 366.6L708.634 355.8C710.968 353.8 714.201 352.267 718.334 351.2C722.534 350.067 727.968 349.5 734.634 349.5C741.168 349.5 746.501 350.033 750.634 351.1C754.834 352.167 758.101 353.667 760.434 355.6C762.834 357.467 764.468 359.733 765.334 362.4C766.201 365 766.634 367.867 766.634 371V405.1C766.634 408.167 766.201 411 765.334 413.6C764.468 416.2 762.901 418.433 760.634 420.3L747.734 431.1ZM765.634 405.1V371C765.634 367.933 765.168 365.167 764.234 362.7C763.368 360.167 761.768 358 759.434 356.2C757.168 354.4 754.001 353 749.934 352C745.934 351 740.834 350.5 734.634 350.5C728.434 350.5 723.301 351 719.234 352C715.168 353 711.968 354.4 709.634 356.2C707.368 358 705.768 360.167 704.834 362.7C703.968 365.167 703.534 367.933 703.534 371V405.1C703.534 408.167 703.968 410.967 704.834 413.5C705.768 415.967 707.368 418.1 709.634 419.9C711.968 421.633 715.168 423 719.234 424C723.301 425 728.434 425.5 734.634 425.5C740.834 425.5 745.934 425 749.934 424C754.001 423 757.168 421.633 759.434 419.9C761.768 418.1 763.368 415.967 764.234 413.5C765.168 410.967 765.634 408.167 765.634 405.1ZM754.734 402.8C754.734 406.8 753.301 410.067 750.434 412.6C747.568 415.067 742.234 416.3 734.434 416.3C726.634 416.3 721.334 415.067 718.534 412.6C715.734 410.067 714.334 406.8 714.334 402.8V373.3C714.334 369.3 715.734 366.067 718.534 363.6C721.334 361.067 726.634 359.8 734.434 359.8C742.234 359.8 747.568 361.067 750.434 363.6C753.301 366.067 754.734 369.3 754.734 373.3V402.8ZM715.334 402.8C715.334 406.533 716.668 409.567 719.334 411.9C722.001 414.167 727.034 415.3 734.434 415.3C741.834 415.3 746.901 414.167 749.634 411.9C752.368 409.567 753.734 406.533 753.734 402.8V373.3C753.734 369.567 752.368 366.567 749.634 364.3C746.901 361.967 741.834 360.8 734.434 360.8C727.034 360.8 722.001 361.967 719.334 364.3C716.668 366.567 715.334 369.567 715.334 373.3V402.8ZM726.234 401.5V374.6C726.234 373.333 726.734 372.267 727.734 371.4C728.734 370.467 731.034 370 734.634 370C738.234 370 740.534 370.467 741.534 371.4C742.534 372.267 743.034 373.333 743.034 374.6V401.5C743.034 402.833 742.534 403.967 741.534 404.9C740.534 405.767 738.234 406.2 734.634 406.2C731.034 406.2 728.734 405.767 727.734 404.9C726.734 403.967 726.234 402.833 726.234 401.5ZM727.234 401.5C727.234 402.167 727.368 402.767 727.634 403.3C727.901 403.767 728.401 404.167 729.134 404.5V385.5C729.134 384.833 729.001 384.267 728.734 383.8C728.468 383.267 727.968 382.867 727.234 382.6V401.5ZM789.026 435.9C787.492 435.9 786.259 435.6 785.326 435C784.392 434.467 783.626 433.467 783.026 432L773.226 407.5C772.626 405.967 772.092 404.667 771.626 403.6C771.226 402.467 770.892 401.4 770.626 400.4C770.359 399.333 770.159 398.233 770.026 397.1C769.959 395.9 769.926 394.5 769.926 392.9V366.5C769.926 365.633 770.026 364.9 770.226 364.3C770.492 363.7 770.859 363.2 771.326 362.8L784.226 351.9C784.559 351.633 784.992 351.433 785.526 351.3C786.126 351.1 786.759 351 787.426 351H803.326C804.926 351 806.126 351.4 806.926 352.2C807.792 352.933 808.226 354.067 808.226 355.6V383.2C808.226 383.867 808.292 384.5 808.426 385.1C808.559 385.7 808.726 386.333 808.926 387L809.226 387.7V366.5C809.226 365.633 809.326 364.9 809.526 364.3C809.792 363.7 810.159 363.2 810.626 362.8L823.526 351.9C823.859 351.633 824.292 351.433 824.826 351.3C825.426 351.1 826.059 351 826.726 351H842.426C844.092 351 845.259 351.367 845.926 352.1C846.659 352.833 847.026 354 847.026 355.6V382C847.026 383.6 846.959 385 846.826 386.2C846.759 387.333 846.592 388.433 846.326 389.5C846.059 390.5 845.692 391.567 845.226 392.7C844.826 393.767 844.326 395.067 843.726 396.6L833.926 421.1C833.726 421.7 833.459 422.233 833.126 422.7C832.792 423.167 832.459 423.533 832.126 423.8L819.226 434.5C818.692 434.967 818.059 435.3 817.326 435.5C816.659 435.767 815.892 435.9 815.026 435.9H789.026ZM827.926 424C829.192 424 830.226 423.767 831.026 423.3C831.892 422.833 832.559 421.967 833.026 420.7L842.826 396.2C843.426 394.733 843.926 393.467 844.326 392.4C844.726 391.267 845.059 390.2 845.326 389.2C845.592 388.2 845.759 387.167 845.826 386.1C845.959 384.967 846.026 383.6 846.026 382V355.6C846.026 354.333 845.726 353.433 845.126 352.9C844.592 352.3 843.692 352 842.426 352H826.726C825.459 352 824.526 352.3 823.926 352.9C823.392 353.433 823.126 354.333 823.126 355.6V383.1C823.126 383.767 823.059 384.433 822.926 385.1C822.792 385.767 822.592 386.467 822.326 387.2L817.626 401.3C817.426 401.967 817.192 402.433 816.926 402.7C816.659 402.9 816.259 403 815.726 403H814.626C814.092 403 813.692 402.9 813.426 402.7C813.159 402.433 812.926 401.967 812.726 401.3L808.026 387.3C807.759 386.567 807.559 385.867 807.426 385.2C807.292 384.533 807.226 383.867 807.226 383.2V355.6C807.226 354.333 806.892 353.433 806.226 352.9C805.559 352.3 804.592 352 803.326 352H787.426C786.159 352 785.226 352.3 784.626 352.9C784.092 353.433 783.826 354.333 783.826 355.6V382C783.826 383.6 783.859 384.967 783.926 386.1C784.059 387.167 784.259 388.2 784.526 389.2C784.792 390.2 785.126 391.267 785.526 392.4C785.926 393.467 786.426 394.733 787.026 396.2L796.826 420.7C797.292 421.967 797.926 422.833 798.726 423.3C799.592 423.767 800.659 424 801.926 424H827.926ZM795.126 361H796.126V382.6C796.126 384.333 796.259 386 796.526 387.6C796.792 389.133 797.192 390.567 797.726 391.9L804.326 407.9C804.992 409.633 805.726 411.1 806.526 412.3C807.392 413.433 808.759 414 810.626 414H819.426C821.292 414 822.626 413.433 823.426 412.3C824.292 411.1 825.059 409.633 825.726 407.9L832.326 391.9C832.859 390.567 833.259 389.133 833.526 387.6C833.792 386 833.926 384.333 833.926 382.6V361H834.926V382.6C834.926 384.467 834.792 386.2 834.526 387.8C834.326 389.333 833.926 390.833 833.326 392.3L826.726 408.3C825.926 410.233 825.026 411.833 824.026 413.1C823.026 414.367 821.492 415 819.426 415H810.626C808.559 415 807.026 414.367 806.026 413.1C805.026 411.833 804.126 410.233 803.326 408.3L796.726 392.3C796.126 390.833 795.692 389.333 795.426 387.8C795.226 386.2 795.126 384.467 795.126 382.6V361ZM897.034 435.9H854.434C852.834 435.9 851.667 435.533 850.934 434.8C850.2 434.067 849.834 432.9 849.834 431.3V419.4C849.834 418.533 849.934 417.8 850.134 417.2C850.4 416.6 850.767 416.1 851.234 415.7L863.334 405.5V383.2H854.434C852.834 383.2 851.667 382.833 850.934 382.1C850.2 381.367 849.834 380.2 849.834 378.6V366.5C849.834 365.633 849.934 364.9 850.134 364.3C850.4 363.7 850.767 363.2 851.234 362.8L864.134 351.9C864.467 351.633 864.9 351.433 865.434 351.3C866.034 351.1 866.667 351 867.334 351H909.934C911.534 351 912.7 351.367 913.434 352.1C914.167 352.833 914.534 354 914.534 355.6V367.7C914.534 368.567 914.4 369.3 914.134 369.9C913.934 370.5 913.6 371 913.134 371.4L901.234 381.4V403.9H909.934C911.534 403.9 912.7 404.267 913.434 405C914.167 405.733 914.534 406.9 914.534 408.5V420.4C914.534 421.267 914.4 422 914.134 422.6C913.934 423.2 913.6 423.7 913.134 424.1L900.134 434.9C899.867 435.167 899.434 435.4 898.834 435.6C898.3 435.8 897.7 435.9 897.034 435.9ZM867.334 424H909.934C911.2 424 912.1 423.733 912.634 423.2C913.234 422.6 913.534 421.667 913.534 420.4V408.5C913.534 407.233 913.234 406.333 912.634 405.8C912.1 405.2 911.2 404.9 909.934 404.9H900.234V371.3H909.934C911.2 371.3 912.1 371.033 912.634 370.5C913.234 369.9 913.534 368.967 913.534 367.7V355.6C913.534 354.333 913.234 353.433 912.634 352.9C912.1 352.3 911.2 352 909.934 352H867.334C866.067 352 865.134 352.3 864.534 352.9C864 353.433 863.734 354.333 863.734 355.6V367.7C863.734 368.967 864 369.9 864.534 370.5C865.134 371.033 866.067 371.3 867.334 371.3H877.234V404.9H867.334C866.067 404.9 865.134 405.2 864.534 405.8C864 406.333 863.734 407.233 863.734 408.5V420.4C863.734 421.667 864 422.6 864.534 423.2C865.134 423.733 866.067 424 867.334 424ZM904.534 415H872.734V414H888.234V362H872.734V361H904.534V362H889.234V414H904.534V415ZM969.941 435.9H923.541C921.941 435.9 920.775 435.533 920.041 434.8C919.308 434.067 918.941 432.9 918.941 431.3V366.5C918.941 365.633 919.041 364.9 919.241 364.3C919.508 363.7 919.875 363.2 920.341 362.8L933.241 351.9C933.575 351.633 934.008 351.433 934.541 351.3C935.141 351.1 935.775 351 936.441 351H982.841C984.441 351 985.608 351.367 986.341 352.1C987.075 352.833 987.441 354 987.441 355.6V367.3C987.441 368.167 987.308 368.9 987.041 369.5C986.841 370.1 986.508 370.6 986.041 371L977.441 378.1C978.108 378.433 978.575 378.933 978.841 379.6C979.175 380.267 979.341 381.133 979.341 382.2V392.9C979.341 393.767 979.208 394.5 978.941 395.1C978.741 395.7 978.408 396.2 977.941 396.6L969.041 404.1H982.841C984.441 404.1 985.608 404.467 986.341 405.2C987.075 405.933 987.441 407.1 987.441 408.7V420.4C987.441 421.267 987.308 422 987.041 422.6C986.841 423.2 986.508 423.7 986.041 424.1L973.041 434.9C972.775 435.167 972.341 435.4 971.741 435.6C971.208 435.8 970.608 435.9 969.941 435.9ZM982.841 424C984.108 424 985.008 423.733 985.541 423.2C986.141 422.6 986.441 421.667 986.441 420.4V408.7C986.441 407.433 986.141 406.533 985.541 406C985.008 405.4 984.108 405.1 982.841 405.1H955.241V396.5H974.741C976.008 396.5 976.908 396.233 977.441 395.7C978.041 395.1 978.341 394.167 978.341 392.9V382.2C978.341 380.933 978.041 380.033 977.441 379.5C976.908 378.9 976.008 378.6 974.741 378.6H955.241V370.9H982.841C984.108 370.9 985.008 370.633 985.541 370.1C986.141 369.5 986.441 368.567 986.441 367.3V355.6C986.441 354.333 986.141 353.433 985.541 352.9C985.008 352.3 984.108 352 982.841 352H936.441C935.175 352 934.241 352.3 933.641 352.9C933.108 353.433 932.841 354.333 932.841 355.6V420.4C932.841 421.667 933.108 422.6 933.641 423.2C934.241 423.733 935.175 424 936.441 424H982.841ZM977.441 414V415H943.741V361H977.441V362H944.741V387.1H969.341V388.1H944.741V414H977.441ZM1069.75 435.9H1045.35C1036.62 435.9 1030.15 433.633 1025.95 429.1C1021.82 424.567 1019.75 418.7 1019.75 411.5V383.4C1019.75 379.733 1020.28 376.567 1021.35 373.9C1022.42 371.167 1023.98 368.9 1026.05 367.1L1039.05 356.2C1041.12 354.467 1043.75 353.167 1046.95 352.3C1050.15 351.433 1053.92 351 1058.25 351H1082.65C1084.25 351 1085.42 351.367 1086.15 352.1C1086.88 352.833 1087.25 354 1087.25 355.6V367.7C1087.25 368.567 1087.12 369.3 1086.85 369.9C1086.65 370.5 1086.32 371 1085.85 371.4L1072.85 382.2C1072.58 382.467 1072.15 382.7 1071.55 382.9C1071.02 383.1 1070.42 383.2 1069.75 383.2H1057.45V400.1C1057.45 401.5 1057.88 402.5 1058.75 403.1C1059.62 403.633 1060.88 403.9 1062.55 403.9H1082.65C1084.25 403.9 1085.42 404.267 1086.15 405C1086.88 405.733 1087.25 406.9 1087.25 408.5V420.4C1087.25 421.267 1087.12 422 1086.85 422.6C1086.65 423.2 1086.32 423.7 1085.85 424.1L1072.85 434.9C1072.58 435.167 1072.15 435.4 1071.55 435.6C1071.02 435.8 1070.42 435.9 1069.75 435.9ZM1082.65 424C1083.92 424 1084.82 423.733 1085.35 423.2C1085.95 422.6 1086.25 421.667 1086.25 420.4V408.5C1086.25 407.233 1085.95 406.333 1085.35 405.8C1084.82 405.2 1083.92 404.9 1082.65 404.9H1062.55C1060.48 404.9 1058.95 404.533 1057.95 403.8C1056.95 403 1056.45 401.767 1056.45 400.1V376.3C1056.45 374.633 1056.95 373.4 1057.95 372.6C1058.95 371.733 1060.48 371.3 1062.55 371.3H1082.65C1083.92 371.3 1084.82 371.033 1085.35 370.5C1085.95 369.9 1086.25 368.967 1086.25 367.7V355.6C1086.25 354.333 1085.95 353.433 1085.35 352.9C1084.82 352.3 1083.92 352 1082.65 352H1058.25C1049.92 352 1043.72 353.7 1039.65 357.1C1035.65 360.433 1033.65 365.567 1033.65 372.5V403.6C1033.65 410.533 1035.65 415.667 1039.65 419C1043.72 422.333 1049.92 424 1058.25 424H1082.65ZM1077.15 414V415H1060.45C1053.98 415 1049.68 414 1047.55 412C1045.48 410 1044.45 406.7 1044.45 402.1V374.1C1044.45 369.367 1045.52 366 1047.65 364C1049.78 362 1054.05 361 1060.45 361H1077.15V362H1060.45C1054.58 362 1050.62 362.933 1048.55 364.8C1046.48 366.6 1045.45 369.7 1045.45 374.1V402.1C1045.45 406.433 1046.45 409.5 1048.45 411.3C1050.45 413.1 1054.45 414 1060.45 414H1077.15ZM1146.11 435.9H1095.21C1093.61 435.9 1092.44 435.533 1091.71 434.8C1090.97 434.067 1090.61 432.9 1090.61 431.3V366.5C1090.61 365.633 1090.71 364.9 1090.91 364.3C1091.17 363.7 1091.54 363.2 1092.01 362.8L1104.91 351.9C1105.24 351.633 1105.67 351.433 1106.21 351.3C1106.81 351.1 1107.44 351 1108.11 351H1123.61C1125.21 351 1126.37 351.367 1127.11 352.1C1127.84 352.833 1128.21 354 1128.21 355.6V396.3L1128.41 396.1L1141.31 385.2C1141.64 384.933 1142.07 384.733 1142.61 384.6C1143.21 384.4 1143.84 384.3 1144.51 384.3H1159.01C1160.61 384.3 1161.77 384.667 1162.51 385.4C1163.24 386.133 1163.61 387.3 1163.61 388.9V420.4C1163.61 421.267 1163.47 422 1163.21 422.6C1163.01 423.2 1162.67 423.7 1162.21 424.1L1149.21 434.9C1148.94 435.167 1148.51 435.4 1147.91 435.6C1147.37 435.8 1146.77 435.9 1146.11 435.9ZM1159.01 424C1160.27 424 1161.17 423.733 1161.71 423.2C1162.31 422.6 1162.61 421.667 1162.61 420.4V388.9C1162.61 387.633 1162.31 386.733 1161.71 386.2C1161.17 385.6 1160.27 385.3 1159.01 385.3H1144.51C1143.24 385.3 1142.31 385.6 1141.71 386.2C1141.17 386.733 1140.91 387.633 1140.91 388.9V405.1H1127.21V355.6C1127.21 354.333 1126.91 353.433 1126.31 352.9C1125.77 352.3 1124.87 352 1123.61 352H1108.11C1106.84 352 1105.91 352.3 1105.31 352.9C1104.77 353.433 1104.51 354.333 1104.51 355.6V420.4C1104.51 421.667 1104.77 422.6 1105.31 423.2C1105.91 423.733 1106.84 424 1108.11 424H1159.01ZM1115.41 415V361H1116.41V414H1151.21V394.3H1152.21V415H1115.41ZM1198.5 437.4C1192.03 437.4 1186.7 436.7 1182.5 435.3C1178.36 433.967 1175.13 432.167 1172.8 429.9C1170.46 427.633 1168.83 425.033 1167.9 422.1C1167.03 419.167 1166.6 416.133 1166.6 413V366.5C1166.6 365.633 1166.7 364.9 1166.9 364.3C1167.16 363.7 1167.53 363.2 1168 362.8L1180.9 351.9C1181.23 351.633 1181.66 351.433 1182.2 351.3C1182.8 351.1 1183.43 351 1184.1 351H1199.8C1201.4 351 1202.56 351.367 1203.3 352.1C1204.03 352.833 1204.4 354 1204.4 355.6V401.2C1204.4 401.8 1204.5 402.367 1204.7 402.9C1204.9 403.367 1205.33 403.733 1206 404V366.5C1206 365.633 1206.1 364.9 1206.3 364.3C1206.5 363.7 1206.8 363.233 1207.2 362.9L1207.3 362.8L1220.3 351.9C1220.63 351.633 1221.06 351.433 1221.6 351.3C1222.13 351.1 1222.76 351 1223.5 351H1238.7C1240.3 351 1241.46 351.367 1242.2 352.1C1242.93 352.833 1243.3 354 1243.3 355.6V405.1C1243.3 408.167 1242.86 411 1242 413.6C1241.13 416.2 1239.56 418.433 1237.3 420.3L1224.3 431.1C1221.96 433.1 1218.73 434.633 1214.6 435.7C1210.46 436.833 1205.1 437.4 1198.5 437.4ZM1242.3 405.1V355.6C1242.3 354.333 1242 353.433 1241.4 352.9C1240.86 352.3 1239.96 352 1238.7 352H1223.5C1222.23 352 1221.3 352.3 1220.7 352.9C1220.16 353.433 1219.9 354.333 1219.9 355.6V401.2C1219.9 402.533 1219.4 403.667 1218.4 404.6C1217.4 405.467 1215.13 405.9 1211.6 405.9C1208.13 405.9 1205.9 405.467 1204.9 404.6C1203.9 403.667 1203.4 402.533 1203.4 401.2V355.6C1203.4 354.333 1203.1 353.433 1202.5 352.9C1201.96 352.3 1201.06 352 1199.8 352H1184.1C1182.83 352 1181.9 352.3 1181.3 352.9C1180.76 353.433 1180.5 354.333 1180.5 355.6V405.1C1180.5 408.167 1180.93 410.967 1181.8 413.5C1182.73 415.967 1184.33 418.1 1186.6 419.9C1188.93 421.633 1192.1 423 1196.1 424C1200.1 425 1205.2 425.5 1211.4 425.5C1217.6 425.5 1222.7 425 1226.7 424C1230.7 423 1233.83 421.633 1236.1 419.9C1238.43 418.1 1240.03 415.967 1240.9 413.5C1241.83 410.967 1242.3 408.167 1242.3 405.1ZM1191.5 361H1192.5V402.7C1192.5 406.433 1193.8 409.467 1196.4 411.8C1199.06 414.067 1204.1 415.2 1211.5 415.2C1218.9 415.2 1223.93 414.067 1226.6 411.8C1229.26 409.467 1230.6 406.433 1230.6 402.7V361H1231.6V402.7C1231.6 406.7 1230.2 409.967 1227.4 412.5C1224.6 414.967 1219.3 416.2 1211.5 416.2C1203.7 416.2 1198.4 414.967 1195.6 412.5C1192.86 409.967 1191.5 406.7 1191.5 402.7V361ZM1253.27 435.9C1251.67 435.9 1250.5 435.533 1249.77 434.8C1249.03 434.067 1248.67 432.9 1248.67 431.3V366.5C1248.67 365.633 1248.77 364.9 1248.97 364.3C1249.23 363.7 1249.6 363.2 1250.07 362.8L1262.97 351.9C1263.3 351.633 1263.73 351.433 1264.27 351.3C1264.87 351.1 1265.5 351 1266.17 351H1298.07C1305 351 1310.1 352.367 1313.37 355.1C1316.63 357.767 1318.27 361.833 1318.27 367.3V372.1C1318.27 374.433 1317.93 376.433 1317.27 378.1C1316.67 379.767 1315.73 381.1 1314.47 382.1L1314.17 382.3C1317.77 383.1 1320.47 384.833 1322.27 387.5C1324.07 390.1 1324.97 393.733 1324.97 398.4V407.6C1324.97 410.6 1324.53 413.2 1323.67 415.4C1322.8 417.533 1321.5 419.333 1319.77 420.8L1306.87 431.7C1305.2 433.1 1303.1 434.133 1300.57 434.8C1298.03 435.533 1295.07 435.9 1291.67 435.9H1253.27ZM1304.57 424C1311.17 424 1316.03 422.667 1319.17 420C1322.37 417.333 1323.97 413.2 1323.97 407.6V398.4C1323.97 393.533 1322.93 389.833 1320.87 387.3C1318.8 384.767 1315.63 383.3 1311.37 382.9C1313.37 382.033 1314.83 380.733 1315.77 379C1316.77 377.2 1317.27 374.9 1317.27 372.1V367.3C1317.27 362.1 1315.7 358.267 1312.57 355.8C1309.43 353.267 1304.6 352 1298.07 352H1266.17C1264.9 352 1263.97 352.3 1263.37 352.9C1262.83 353.433 1262.57 354.333 1262.57 355.6V420.4C1262.57 421.667 1262.83 422.6 1263.37 423.2C1263.97 423.733 1264.9 424 1266.17 424H1304.57ZM1300.57 415H1273.67V361H1293.97C1296.7 361 1298.93 361.3 1300.67 361.9C1302.4 362.433 1303.73 363.2 1304.67 364.2C1305.6 365.133 1306.23 366.233 1306.57 367.5C1306.9 368.767 1307.07 370.133 1307.07 371.6V378C1307.07 380 1306.7 381.833 1305.97 383.5C1305.3 385.167 1303.53 386.367 1300.67 387.1C1303.4 387.1 1305.63 387.4 1307.37 388C1309.1 388.533 1310.43 389.333 1311.37 390.4C1312.3 391.4 1312.9 392.6 1313.17 394C1313.5 395.4 1313.67 396.933 1313.67 398.6V405C1313.67 406.467 1313.5 407.833 1313.17 409.1C1312.83 410.3 1312.2 411.333 1311.27 412.2C1310.4 413.067 1309.1 413.767 1307.37 414.3C1305.63 414.767 1303.37 415 1300.57 415ZM1293.97 362H1274.67V387.1H1293.97C1296.7 387.1 1298.87 386.867 1300.47 386.4C1302.07 385.867 1303.27 385.2 1304.07 384.4C1304.93 383.533 1305.47 382.567 1305.67 381.5C1305.93 380.367 1306.07 379.2 1306.07 378V371.6C1306.07 368.933 1305.3 366.667 1303.77 364.8C1302.23 362.933 1298.97 362 1293.97 362ZM1285.07 369H1293.57C1294.83 369 1295.77 369.333 1296.37 370C1297.03 370.667 1297.37 371.667 1297.37 373V375.8C1297.37 377.133 1297.03 378.133 1296.37 378.8C1295.77 379.467 1294.83 379.8 1293.57 379.8H1285.07V369ZM1300.67 388.1H1274.67V414H1300.57C1305.57 414 1308.83 413.2 1310.37 411.6C1311.9 409.933 1312.67 407.733 1312.67 405V398.6C1312.67 395.6 1311.9 393.1 1310.37 391.1C1308.9 389.1 1305.67 388.1 1300.67 388.1ZM1285.07 395.2H1298.07C1299.33 395.2 1300.27 395.533 1300.87 396.2C1301.53 396.8 1301.87 397.767 1301.87 399.1V403C1301.87 404.333 1301.53 405.333 1300.87 406C1300.27 406.667 1299.33 407 1298.07 407H1285.07V395.2Z" fill="url(#paint3_linear_28_105)"/>
<path d="M1097.24 480.635C1098.74 476.029 1105.26 476.029 1106.76 480.635L1112.1 497.094C1112.77 499.154 1114.69 500.549 1116.86 500.549H1134.16C1139.01 500.549 1141.02 506.747 1137.1 509.594L1123.1 519.766C1121.35 521.04 1120.62 523.297 1121.29 525.357L1126.63 541.816C1128.13 546.422 1122.86 550.253 1118.94 547.406L1104.94 537.234C1103.19 535.96 1100.81 535.96 1099.06 537.234L1085.06 547.406C1081.14 550.253 1075.87 546.422 1077.37 541.816L1082.71 525.357C1083.38 523.296 1082.65 521.04 1080.9 519.766L1066.9 509.594C1062.98 506.747 1064.99 500.549 1069.84 500.549H1087.14C1089.31 500.549 1091.23 499.154 1091.9 497.094L1097.24 480.635Z" fill="#929292"/>
<path d="M1327 260L1340.5 296.495L1377 310L1340.5 323.505L1327 360L1313.5 323.505L1277 310L1313.5 296.495L1327 260Z" fill="#866FE3"/>
<path d="M1232 449L1255.69 492.312L1299 516L1255.69 539.688L1232 583L1208.31 539.688L1165 516L1208.31 492.312L1232 449Z" fill="#BB84BC"/>
<circle cx="425" cy="533" r="58.5" stroke="#5C5C5C"/>
<circle cx="972" cy="155" r="58" fill="#BE94D1" fill-opacity="0.7"/>
<circle cx="1112" cy="142" r="40" fill="#81FFD1" fill-opacity="0.8"/>
<circle cx="1221" cy="129" r="27" fill="#F7FB2B" fill-opacity="0.5"/>
<path d="M1048.12 134.427C1048.79 136.968 1047.53 140.026 1044.35 143.445C1041.19 146.843 1036.25 150.478 1029.87 154.13C1017.12 161.429 998.736 168.733 977.748 174.299C956.761 179.865 937.175 182.631 922.483 182.61C915.133 182.6 909.036 181.893 904.609 180.507C900.154 179.113 897.541 177.083 896.867 174.541C896.193 172 897.457 168.942 900.635 165.523C903.794 162.125 908.738 158.49 915.117 154.838C927.869 147.539 946.25 140.235 967.238 134.669C988.225 129.103 1007.81 126.337 1022.5 126.358C1029.85 126.368 1035.95 127.075 1040.38 128.461C1044.83 129.855 1047.45 131.885 1048.12 134.427Z" stroke="#6A6A6A"/>
<path d="M1163.64 129.918C1164.08 131.558 1163.27 133.576 1161.12 135.886C1159 138.174 1155.66 140.631 1151.34 143.104C1142.7 148.047 1130.25 152.997 1116.02 156.771C1101.79 160.545 1088.52 162.418 1078.57 162.404C1073.59 162.398 1069.47 161.918 1066.49 160.985C1063.48 160.043 1061.78 158.69 1061.34 157.05C1060.91 155.41 1061.71 153.392 1063.86 151.082C1065.99 148.794 1069.33 146.337 1073.65 143.864C1082.28 138.921 1094.74 133.97 1108.97 130.197C1123.2 126.423 1136.47 124.55 1146.42 124.563C1151.4 124.57 1155.52 125.05 1158.5 125.983C1161.51 126.925 1163.21 128.278 1163.64 129.918Z" stroke="#9C9C9C"/>
<path d="M1257.24 119.196C1257.51 120.239 1257.01 121.568 1255.54 123.144C1254.1 124.697 1251.82 126.374 1248.86 128.068C1242.95 131.451 1234.42 134.844 1224.66 137.431C1214.91 140.019 1205.81 141.301 1199 141.292C1195.59 141.287 1192.79 140.959 1190.76 140.325C1188.71 139.682 1187.61 138.778 1187.34 137.734C1187.06 136.69 1187.56 135.361 1189.03 133.786C1190.47 132.232 1192.75 130.555 1195.71 128.862C1201.62 125.478 1210.15 122.085 1219.91 119.498C1229.66 116.911 1238.76 115.628 1245.57 115.638C1248.98 115.642 1251.78 115.971 1253.81 116.605C1255.86 117.247 1256.96 118.152 1257.24 119.196Z" stroke="#BCBCBC"/>
<path d="M673.71 486.795C673.85 486.83 673.99 486.795 674.13 486.795C674.9 486.865 675.6 487.04 676.23 487.6C676.545 487.915 676.72 488.335 676.72 488.825C676.72 489.315 676.545 490.015 676.265 490.33C675.53 491.065 673.815 490.995 673.745 490.995H654.145C653.935 490.995 653.69 491.03 653.445 491.03C652.465 491.065 651.205 491.135 650.435 490.47C649.98 490.05 649.7 489.525 649.7 488.965C649.7 488.265 650.155 487.39 650.855 487.11C651.8 486.76 652.815 486.83 653.83 486.795H654.005C656 486.76 658.17 486.76 660.27 486.795L660.235 482.07C659.675 482.07 659.115 482.035 658.555 482C657.365 481.93 655.825 482.035 654.67 481.965C653.48 481.895 652.29 481.475 652.08 480.18C651.66 477.52 651.8 475.63 651.8 472.935V470.485C651.8 469.26 651.59 467.3 652.885 466.635C654.285 465.935 656.525 465.9 658.065 465.9H669.335C669.405 465.9 671.855 466.005 672.8 466.565C673.955 467.23 673.99 469.82 673.99 469.925V476.68C673.99 477.765 673.99 478.815 673.815 479.9C673.71 480.565 673.57 481.3 672.905 481.615C672.135 482 670.63 481.93 669.79 481.895C668.81 481.895 667.83 482 666.85 482H665.87H665.135L665.205 486.795C667.795 486.795 668.915 486.725 671.33 486.795C672.17 486.83 672.975 486.725 673.71 486.795ZM659.22 477.66L667.165 477.59C667.585 477.52 668.005 477.625 668.46 477.45C669.055 477.205 668.88 476.33 668.88 475.805V472.865C668.88 471.325 669.16 470.835 666.78 470.765H659.92C659.885 470.765 658.345 470.8 657.61 470.905C657.015 471.01 656.595 471.465 656.595 472.06L656.665 476.75C656.84 477.87 658.415 477.66 659.22 477.66ZM700.258 475.49C700.748 475.735 701.098 476.26 701.203 476.75C701.308 477.24 701.203 477.73 700.853 478.15C699.558 479.795 696.933 479.655 695.043 479.655H689.233C687.168 479.655 685.453 479.69 683.388 479.69C682.023 479.655 680.448 479.445 679.783 478.115C678.943 476.47 679.188 474.65 679.188 472.83V470.45C679.153 470.205 678.908 467.685 679.608 466.565C680.203 465.585 682.338 465.515 682.583 465.515H696.933C697.038 465.55 700.223 465.41 700.713 466.915C700.888 467.44 700.853 468.665 700.643 469.05C700.468 469.4 699.908 469.61 699.488 469.715C699.068 469.82 698.403 469.925 697.493 469.925H696.408C692.663 469.75 690.493 469.855 686.258 469.925C685.523 469.925 684.193 469.68 684.018 470.415C683.808 471.22 683.913 471.85 683.878 472.725C683.843 473.355 683.703 474.335 684.333 474.79C684.648 475 685.418 474.965 685.838 474.965C687.518 475.035 688.953 475.035 690.633 474.965C693.118 474.895 694.868 474.93 697.353 474.93C698.508 474.93 699.488 475.14 700.258 475.49ZM680.483 486.865C679.398 486.83 678.383 486.655 677.788 485.745C677.298 484.975 677.298 483.96 677.928 483.295C678.663 482.56 680.378 482.595 680.448 482.595H699.523C700.993 482.525 703.268 482.595 703.268 484.66C703.268 486.97 699.628 486.795 698.123 486.83H696.758C695.848 486.865 694.938 486.83 694.028 486.83H692.698C692.733 488.125 692.838 489.735 692.663 490.82C692.558 491.695 692.243 492.605 691.473 493.095C690.773 493.55 689.723 493.585 688.988 493.165C688.393 492.815 688.113 491.975 688.008 491.345C687.903 490.82 687.973 490.19 687.973 489.665C687.938 488.825 687.938 487.775 687.938 486.795H687.063C684.473 486.83 683.073 486.9 680.483 486.865ZM707.479 480.005C706.534 479.34 705.869 478.36 705.484 477.205C705.029 476.015 704.889 474.895 704.889 473.74C704.889 472.515 705.099 471.5 705.484 470.485C705.939 469.505 706.464 468.63 707.199 467.965C707.934 467.195 708.739 466.635 709.789 466.25C710.734 465.795 711.854 465.585 713.044 465.585C713.499 465.515 713.849 465.515 714.269 465.585C714.654 465.585 715.109 465.655 715.494 465.725C715.669 465.795 715.914 465.795 716.124 465.865C716.369 465.865 716.579 465.97 716.719 466.04C717.244 466.18 717.664 466.32 718.119 466.565C718.574 466.775 718.959 466.985 719.309 467.195C719.589 467.335 719.974 467.65 720.289 467.965C720.744 468.42 721.024 468.77 721.304 469.26C721.584 469.715 721.829 470.24 721.899 470.835C722.039 471.36 722.109 471.885 722.214 472.41C722.284 472.9 722.354 473.425 722.284 474.02C722.284 474.3 722.214 474.685 722.214 474.965C722.109 475.35 722.109 475.735 721.969 476.015C721.829 476.89 721.514 477.8 721.094 478.535C720.569 479.34 719.974 479.9 719.169 480.46C718.574 480.81 717.979 481.125 717.314 481.265C716.719 481.44 716.054 481.545 715.424 481.685C715.179 481.755 714.969 481.755 714.724 481.755C714.584 481.755 714.339 481.755 714.129 481.825H713.499C713.324 481.825 713.114 481.825 712.869 481.755C712.589 481.755 712.274 481.755 711.994 481.685C711.644 481.685 711.329 481.615 711.014 481.615C710.349 481.51 709.789 481.335 709.194 481.055C708.564 480.74 708.004 480.46 707.479 480.005ZM730.054 469.54V471.815C730.124 472.725 730.124 473.74 730.124 474.79V480.46C730.124 481.51 730.124 482.455 730.054 483.33V487.32C729.984 488.055 730.054 488.825 730.054 489.455C730.054 489.91 730.054 490.365 729.984 490.715C729.984 491.1 729.914 491.38 729.739 491.625C729.669 491.835 729.529 491.975 729.459 492.22C729.284 492.36 729.144 492.57 728.759 492.71C728.339 493.025 727.744 493.095 727.149 493.025C726.764 492.92 726.484 492.78 726.274 492.57C726.064 492.43 725.889 492.15 725.749 491.835C725.609 491.52 725.504 491.24 725.504 490.925C725.434 490.715 725.364 490.435 725.364 490.295V489.91L725.294 469.155C725.294 468.56 725.294 467.965 725.434 467.23C725.504 466.565 725.749 466.04 726.064 465.69C726.344 465.48 726.624 465.305 726.834 465.235C727.149 465.165 727.429 465.165 727.814 465.165C728.199 465.165 728.549 465.235 728.934 465.48C729.214 465.69 729.459 466.005 729.599 466.355C729.809 466.88 729.984 467.405 729.984 467.895C729.984 468.42 729.984 469.015 730.054 469.54ZM722.354 485.675C722.669 485.78 722.949 485.92 723.159 486.06C723.614 486.515 723.894 486.97 723.894 487.53C723.894 487.915 723.754 488.3 723.509 488.58C723.299 488.86 723.054 489.07 722.739 489.175C722.494 489.245 722.284 489.315 722.039 489.315C721.759 489.385 721.514 489.385 721.304 489.385H717.979C717.174 489.385 716.369 489.385 715.494 489.455H713.044C712.204 489.385 711.574 489.385 710.944 489.385H707.269C706.814 489.385 706.394 489.315 705.939 489.245C705.694 489.175 705.484 489.07 705.274 489C705.029 488.93 704.889 488.86 704.679 488.685C704.399 488.37 704.224 487.985 704.224 487.39C704.224 486.9 704.399 486.515 704.679 486.2C704.819 485.99 705.029 485.85 705.344 485.78C705.624 485.675 705.939 485.605 706.149 485.535C706.464 485.465 706.639 485.465 706.814 485.465H720.044C720.499 485.465 720.954 485.465 721.304 485.535C721.689 485.535 721.969 485.605 722.354 485.675ZM709.544 473.11C709.474 473.565 709.474 474.02 709.544 474.51C709.649 475.035 709.789 475.49 709.999 475.875C710.489 476.61 711.189 477.135 712.064 477.485C712.729 477.73 713.394 477.8 714.059 477.8C714.444 477.73 714.724 477.73 715.109 477.66C715.424 477.66 715.739 477.485 716.054 477.345C716.509 477.135 716.894 476.75 717.174 476.295C717.489 475.805 717.594 475.35 717.734 474.825C717.909 474.02 717.839 473.355 717.594 472.585C717.489 472.27 717.314 471.955 717.174 471.71C717.034 471.57 716.964 471.36 716.789 471.29C716.719 471.115 716.579 470.975 716.369 470.835C716.194 470.73 715.984 470.625 715.809 470.555C715.634 470.415 715.424 470.345 715.179 470.24C714.584 470.1 713.989 470.03 713.324 470.03C712.729 470.03 712.134 470.1 711.644 470.345C711.119 470.555 710.664 470.835 710.279 471.36C709.929 471.815 709.719 472.41 709.544 473.11ZM742.656 492.64C742.621 492.64 742.586 492.605 742.551 492.57C742.096 492.22 741.956 491.345 741.956 490.82C741.921 489.98 741.816 489.14 741.816 488.335C741.816 487.145 741.781 485.955 741.991 484.8C742.131 484.065 742.411 483.645 743.111 483.365C743.741 483.12 744.406 482.98 745.071 482.98H761.556C762.431 483.015 763.411 483.05 764.251 483.435C765.161 483.82 765.406 484.8 765.476 485.71C765.546 487.32 765.616 490.015 765.161 491.695C765.021 492.22 764.916 492.64 764.356 492.815C763.866 492.99 763.271 493.025 762.781 493.025L744.546 492.955C743.951 492.92 743.181 492.99 742.656 492.64ZM751.406 465.55C751.826 465.55 752.211 465.515 752.596 465.62C753.226 465.83 753.926 466.145 754.346 466.705C754.766 467.3 755.011 468.35 755.011 469.085C755.011 471.08 755.116 473.11 755.011 475.105C754.976 476.365 755.151 478.115 754.556 479.2C753.856 480.46 751.861 480.81 751.091 479.55C750.251 478.15 750.461 476.155 750.496 474.545C750.496 473.39 750.496 472.06 750.391 470.905C750.286 469.785 749.446 469.995 748.536 469.925C747.626 469.89 747.976 469.96 747.066 469.96H745.561C744.056 469.96 742.411 469.925 740.696 469.715C739.436 469.54 739.506 467.825 739.681 466.95C739.786 466.495 740.031 466.145 740.416 465.9C740.906 465.55 741.536 465.585 742.131 465.55C742.796 465.48 743.426 465.55 744.091 465.55H751.406ZM765.021 468.14C765.021 468.07 764.986 471.01 765.021 471.675C765.406 471.71 767.296 471.745 767.716 471.85C768.626 472.025 768.941 472.41 769.046 472.9C769.186 473.39 769.221 474.195 768.941 474.65C768.381 475.56 767.191 475.525 765.826 475.56H765.021V478.325C764.986 478.815 764.916 479.375 764.636 479.9C764.496 480.18 764.286 480.425 764.041 480.6C763.691 480.845 763.271 480.95 762.886 480.95C762.536 480.95 762.186 480.88 761.906 480.705C760.961 480.145 760.821 478.85 760.821 478.815V467.685C760.786 467.51 760.856 466.425 761.136 465.865C761.346 465.41 761.871 465.095 762.536 465.025C763.341 464.92 764.076 465.13 764.461 465.55C764.741 465.9 764.811 466.25 764.916 466.635C765.056 467.09 765.056 467.65 765.021 468.14ZM745.981 488.545C745.981 488.755 745.981 489 746.121 489.105C746.296 489.28 747.101 489.175 747.101 489.175H758.056C758.056 489.175 759.701 489.315 760.576 489.21C761.031 489.175 761.066 488.965 761.101 488.545C761.136 488.16 761.206 487.6 760.926 487.25C760.611 486.865 759.911 486.935 759.456 486.97H749.726C748.711 486.9 747.731 486.935 746.716 486.97C746.331 486.97 746.156 486.9 746.051 487.32C745.981 487.635 745.981 487.95 745.981 488.23C746.016 488.3 745.981 488.405 745.981 488.545ZM770.368 487.81C770.368 483.575 775.618 482.42 782.058 482.42C788.498 482.42 793.748 483.085 793.748 487.81C793.748 492.465 788.498 493.2 782.058 493.2C775.618 493.2 770.368 492.465 770.368 487.81ZM769.843 480.075C769.528 479.935 769.283 479.655 769.143 479.27C768.373 477.38 770.508 475.56 771.558 474.3C772.363 473.32 773.168 472.34 773.938 471.325C774.498 470.555 775.548 469.645 775.618 468.63C775.688 467.055 775.618 465.375 777.648 465.375C778.383 465.375 779.188 465.445 779.503 466.18C779.853 467.02 779.503 468.105 779.783 468.98C780.028 469.75 780.693 470.275 781.078 470.94C781.883 472.375 783.038 473.39 783.983 474.685C784.718 475.665 785.488 476.715 785.733 477.905C786.188 479.935 783.598 480.915 782.303 479.585C780.588 477.835 779.258 475.875 777.753 473.95C777.718 473.915 773.553 478.465 773.203 478.885C772.713 479.48 772.153 480.005 771.383 480.18C770.858 480.285 770.298 480.285 769.843 480.075ZM793.923 475.56H793.118V478.745C793.083 479.235 793.013 479.795 792.733 480.32C792.593 480.6 792.383 480.845 792.138 481.02C791.788 481.265 791.228 481.37 790.843 481.37C790.493 481.37 790.003 481.3 789.723 481.125C788.778 480.565 788.638 479.27 788.638 479.235V467.685C788.603 467.51 788.673 466.425 788.953 465.865C789.163 465.41 789.828 465.095 790.493 465.025C791.298 464.92 792.173 465.13 792.558 465.55C792.838 465.9 792.908 466.25 793.013 466.635C793.153 467.09 793.153 467.65 793.118 468.14V470.555C793.118 470.555 793.083 471.01 793.118 471.675C793.503 471.71 795.393 471.745 795.813 471.85C796.723 472.025 797.038 472.41 797.143 472.9C797.283 473.39 797.318 474.195 797.038 474.65C796.478 475.56 795.288 475.525 793.923 475.56ZM789.023 487.81C789.023 486.2 785.313 486.06 782.058 486.06C778.803 486.06 775.303 486.2 775.303 487.81C775.303 489.245 778.803 489.525 782.058 489.525C785.313 489.525 789.023 489.7 789.023 487.81ZM820.77 490.68C821.47 490.75 822.1 491.03 822.31 491.8C822.59 492.675 822.275 493.305 821.4 493.69C820.875 493.9 820.28 493.935 819.79 493.935H803.69C802.78 493.935 801.765 493.9 800.75 493.865C799.805 493.83 799.105 493.06 799 491.94L798.895 489.35C798.86 488.86 798.825 487.95 799.245 487.495C799.875 486.76 801.1 486.655 802.115 486.655C803.41 486.655 807.82 486.69 818.355 486.69V485.36H801.345C800.89 485.36 800.505 485.36 800.19 485.29C799.77 485.15 799.42 485.15 799.21 484.765C798.895 484.24 798.79 483.75 798.965 483.19C799.21 482.385 800.26 482.28 800.75 482.21C801.1 482.14 801.45 482.105 801.835 482.105C803.9 482.105 806.315 482.14 818.705 482.14C821.05 482.14 822.345 482.875 822.345 484.59V487.18C822.345 487.845 822.065 488.58 821.33 489.035C820.77 489.385 820.14 489.35 819.545 489.35H803.165V490.68H820.77ZM799.035 469.68C799.035 465.865 803.515 464.465 810.935 464.465C818.075 464.465 822.87 465.445 822.87 469.68C822.87 473.88 818.915 474.895 810.935 474.895C804.355 474.895 799.035 473.88 799.035 469.68ZM800.4 476.435C801.1 476.365 802.64 476.365 802.64 476.365H810.34C810.34 476.365 816.815 476.295 819.965 476.365H820.14C821.085 476.4 822.03 476.33 822.94 476.68C823.605 476.925 824.025 477.52 824.025 478.22C824.025 478.78 823.78 479.305 823.325 479.69C822.59 480.355 821.4 480.32 820.455 480.25H800.365C800.295 480.25 798.65 480.285 797.985 479.55C797.705 479.27 797.565 478.815 797.565 478.36C797.565 477.87 797.74 477.45 798.02 477.17C798.615 476.575 799.28 476.54 799.98 476.47C800.12 476.47 800.26 476.435 800.4 476.435ZM818.075 469.68C818.075 468.21 814.295 467.895 810.935 467.895C807.61 467.895 804.04 468.21 804.04 469.68C804.04 470.975 807.54 471.29 810.865 471.29C814.225 471.29 818.075 471.36 818.075 469.68ZM836.027 492.675C835.992 492.675 835.957 492.64 835.922 492.605C835.467 492.255 835.327 491.38 835.327 490.855C835.292 490.015 835.187 489.175 835.187 488.37C835.187 487.18 835.152 485.99 835.362 484.835C835.502 484.1 835.782 483.68 836.482 483.4C837.112 483.155 837.777 483.015 838.442 483.015H854.927C855.802 483.05 856.782 483.085 857.622 483.47C858.532 483.855 858.777 484.835 858.847 485.745C858.917 487.355 858.987 490.05 858.532 491.73C858.392 492.255 858.287 492.675 857.727 492.85C857.237 493.025 856.642 493.06 856.152 493.06L837.917 492.99C837.322 492.955 836.552 493.025 836.027 492.675ZM849.747 474.545C849.747 476.715 848.732 478.57 846.947 479.9C842.187 483.435 834.067 480.67 834.067 474.545C834.067 472.69 834.662 471.185 835.642 470.03H835.012C833.857 470.03 832.947 469.19 832.947 468.175C832.947 467.125 833.857 466.285 835.012 466.285H839.632V465.165C839.632 464.255 840.542 463.52 841.662 463.52C842.782 463.52 843.692 464.255 843.692 465.165V466.285H848.557C849.712 466.285 850.622 467.125 850.622 468.175C850.622 469.19 849.712 470.03 848.557 470.03H848.137C849.117 471.185 849.747 472.69 849.747 474.545ZM858.917 475.56H858.112V479.06C858.077 479.55 858.007 480.11 857.727 480.635C857.587 480.915 857.377 481.16 857.132 481.335C856.782 481.58 856.362 481.685 855.977 481.685C855.627 481.685 855.277 481.615 854.997 481.44C854.052 480.88 853.912 479.585 853.912 479.55V467.685C853.877 467.51 853.947 466.425 854.227 465.865C854.437 465.41 854.962 465.095 855.627 465.025C856.432 464.92 857.167 465.13 857.552 465.55C857.832 465.9 857.902 466.25 858.007 466.635C858.147 467.09 858.147 467.65 858.112 468.14V470.555C858.112 470.555 858.077 471.01 858.112 471.675C858.497 471.71 860.387 471.745 860.807 471.85C861.717 472.025 862.032 472.41 862.137 472.9C862.277 473.39 862.312 474.195 862.032 474.65C861.472 475.56 860.282 475.525 858.917 475.56ZM842.607 477.415C844.077 477.135 845.372 476.295 845.372 474.51C845.372 470.345 838.442 470.17 838.442 474.545C838.442 477.065 840.682 477.8 842.607 477.415ZM839.352 488.58C839.352 488.79 839.352 489.035 839.492 489.14C839.667 489.315 840.472 489.21 840.472 489.21H851.427C851.427 489.21 853.072 489.35 853.947 489.245C854.402 489.21 854.437 489 854.472 488.58C854.507 488.195 854.577 487.635 854.297 487.285C853.982 486.9 853.282 486.97 852.827 487.005H843.097C842.082 486.935 841.102 486.97 840.087 487.005C839.702 487.005 839.527 486.935 839.422 487.355C839.352 487.67 839.352 487.985 839.352 488.265C839.387 488.335 839.352 488.44 839.352 488.58ZM871.589 470.59C871.309 470.555 871.064 470.59 870.784 470.555V472.55V484.135C870.784 484.275 870.889 487.04 870.784 488.51C870.714 489.42 870.539 490.505 869.454 490.995C869.034 491.135 868.649 491.24 868.369 491.24C867.809 491.24 867.389 490.96 867.144 490.47C866.829 489.77 866.689 488.965 866.654 488.09V486.585C866.654 486.025 866.619 485.5 866.619 484.94V473.705C866.619 472.97 866.654 472.2 866.549 471.5C866.514 471.255 866.479 470.73 866.269 470.625C866.059 470.52 865.779 470.59 865.499 470.555C865.219 470.52 864.694 470.59 864.379 470.555C863.889 470.555 863.329 470.52 862.909 470.24C862.349 469.785 862.174 469.645 862.174 468.875C862.174 468.455 862.209 468.07 862.419 467.65C862.489 467.475 862.629 467.265 862.839 467.09C863.049 466.88 863.504 466.705 863.819 466.6C864.729 466.425 864.344 466.425 865.464 466.425C865.709 466.425 867.529 466.425 867.879 466.46H868.054C868.404 466.425 868.754 466.425 868.999 466.425H873.374C873.584 466.425 873.829 466.425 874.039 466.46C874.599 466.495 874.949 466.565 875.474 466.775C875.789 466.915 876.174 467.16 876.349 467.475C876.734 468.105 876.699 468.735 876.769 469.47C876.909 470.695 876.839 472.305 876.839 473.565V476.33H879.219V468.595C879.219 468 879.184 467.335 879.324 466.74C879.394 466.53 879.464 466.32 879.569 466.11C879.849 465.655 880.059 465.41 880.584 465.235C880.794 465.165 881.109 465.13 881.319 465.13C882.089 465.13 882.544 465.515 882.929 466.18C883.279 466.775 883.244 468.455 883.244 468.63C883.279 485.64 883.244 488.615 883.244 488.615C883.244 489.77 883.209 490.26 882.859 491.345C882.614 492.045 882.229 492.57 881.214 492.57C880.934 492.57 880.444 492.5 880.199 492.325C879.254 491.73 879.254 489.56 879.254 488.86L879.219 480.915L876.839 480.845V484.135C876.874 484.275 876.909 487.04 876.839 488.51C876.769 489.875 876.034 491.24 874.424 491.24C873.899 491.24 873.584 490.96 873.304 490.47C872.989 489.77 872.849 488.965 872.849 488.09C872.849 487.565 872.849 487.04 872.814 486.585V473.705C872.814 472.97 872.814 472.2 872.709 471.5C872.709 471.255 872.534 470.52 871.589 470.59ZM888.739 491.59C888.599 491.905 888.389 492.15 888.074 492.36C887.584 492.675 887.164 492.745 886.569 492.605C885.169 492.29 884.994 490.75 884.994 489.56V468.98C884.959 467.93 884.994 466.18 885.624 465.55C886.149 465.095 886.359 465.025 886.989 465.025C887.794 465.025 888.494 465.515 888.774 466.25C889.194 467.23 889.159 468.28 889.194 469.33V469.505C889.299 473.04 889.194 476.575 889.194 479.865V488.265C889.194 489.49 889.194 490.61 888.739 491.59ZM905.612 470.52V483.61C905.612 484.275 905.542 484.905 905.577 485.535C905.577 485.85 905.577 486.235 905.822 486.445C906.102 486.69 906.557 486.655 906.907 486.655C907.432 486.655 907.992 486.69 908.517 486.69C909.707 486.69 912.052 486.655 913.207 486.795C914.012 486.9 914.922 487.005 915.622 487.46C915.972 487.705 916.147 488.125 916.182 488.545C916.217 488.755 916.217 488.965 916.217 489.21C916.182 489.735 916.007 490.225 915.657 490.61C915.307 490.995 914.852 491.205 914.362 491.31C913.697 491.415 913.102 491.52 912.437 491.52C912.017 491.52 910.057 491.485 909.672 491.485H906.452C905.542 491.485 904.667 491.345 903.757 491.31C903.057 491.275 902.252 491.065 901.727 490.575C901.237 490.085 900.992 489.455 900.852 488.79C900.572 487.285 900.712 485.675 900.712 484.135V475.56C900.712 474.755 900.747 473.915 900.712 473.075C900.712 472.935 900.642 470.03 900.712 468.49C900.782 467.545 901.027 466.39 902.217 465.9C902.742 465.725 903.302 465.585 903.862 465.725C904.422 465.865 904.947 466.215 905.192 466.81C905.472 467.475 905.577 468.21 905.577 468.98C905.577 469.505 905.577 469.995 905.612 470.52ZM924.232 475.735H924.302C924.512 475.735 924.722 475.805 924.967 475.805C925.212 475.84 925.492 475.875 925.772 475.91C926.297 476.015 926.857 476.225 927.102 476.75C927.277 477.03 927.347 477.345 927.347 477.66C927.347 478.01 927.347 478.325 927.242 478.675C927.172 479.025 927.067 479.515 926.752 479.76C926.472 479.97 926.157 480.145 925.807 480.215C925.072 480.32 923.812 480.215 923.077 480.25C923.007 480.25 922.972 480.285 922.972 480.285C922.972 480.285 922.937 480.285 922.937 480.425C922.902 481.58 922.937 483.68 922.937 484.87C922.972 486.06 922.972 487.285 922.937 488.44V488.93C922.937 490.155 922.937 491.94 922.097 492.78C921.817 493.095 921.432 493.27 920.977 493.27C920.977 493.27 920.942 493.235 920.907 493.235C918.632 493.165 918.387 490.435 918.387 488.965V468.175C918.387 468.105 918.352 466.355 919.122 465.585C919.437 465.27 920.172 465.095 920.697 465.095C921.222 465.095 921.677 465.305 921.992 465.62C922.622 466.285 922.657 467.02 922.727 467.79C922.762 467.93 922.762 468.07 922.762 468.21C922.867 468.98 922.867 469.855 922.902 470.695C922.902 471.22 922.937 471.675 922.937 472.2C922.902 472.48 922.937 472.725 922.937 472.97V474.895C922.937 475.14 922.937 475.42 923.007 475.665C923.007 475.7 923.707 475.7 923.742 475.7C923.917 475.735 924.057 475.77 924.232 475.735ZM947.72 474.965C948.56 474.965 949.715 475.14 950.275 476.05C950.73 476.785 950.695 478.255 949.995 478.85C948.84 479.795 946.915 479.655 945.515 479.69C945.13 479.69 944.71 479.655 944.325 479.69H943.135C942.365 479.69 937.36 479.725 936.59 479.69C935.89 479.655 935.12 479.69 934.385 479.69C932.775 479.69 930.605 479.69 930.01 477.765C929.835 477.275 929.695 476.82 929.695 476.295C929.66 476.12 929.66 475.945 929.66 475.77C929.66 475.56 929.625 475.385 929.625 475.21C929.59 474.72 929.59 474.195 929.59 473.705C929.625 472.585 929.59 473.635 929.59 472.515C929.59 471.99 929.59 471.115 929.555 470.59C929.555 470.38 929.555 470.17 929.59 469.96C929.59 469.54 929.59 469.085 929.625 468.665C929.66 468.525 929.66 468.42 929.66 468.28C929.73 467.685 929.87 467.09 930.15 466.565C930.325 466.285 930.5 466.11 930.745 465.9C930.815 465.795 930.99 465.76 931.095 465.725C931.34 465.62 931.62 465.55 931.9 465.55C932.145 465.55 932.425 465.55 932.67 465.655C933.055 465.76 933.405 465.97 933.615 466.285C933.79 466.53 933.93 466.81 934 467.09C934.105 467.475 934.14 467.895 934.175 468.315C934.28 468.945 934.315 469.61 934.35 470.24C934.385 470.87 934.42 471.5 934.42 472.095C934.42 473.11 934.42 472.62 934.49 473.635C934.525 474.055 934.42 474.125 934.595 474.51C934.875 475.21 935.75 474.895 936.31 474.965C936.8 475.035 937.255 474.965 937.745 474.965H944.99C945.27 474.965 945.655 475 946.075 474.965C946.565 474.93 947.16 474.965 947.72 474.965ZM930.43 486.515C929.345 486.48 928.33 486.305 927.735 485.395C927.245 484.625 927.245 483.61 927.875 482.945C928.61 482.21 930.325 482.245 930.395 482.245H949.47C950.94 482.175 953.215 482.245 953.215 484.31C953.215 486.62 949.575 486.445 948.07 486.48H946.705C945.795 486.515 944.885 486.48 943.975 486.48H942.645C942.68 487.88 942.785 489.7 942.61 490.82C942.505 491.695 942.19 492.605 941.42 493.095C940.72 493.55 939.67 493.585 938.935 493.165C938.34 492.815 938.095 491.975 937.99 491.345C937.885 490.82 937.885 489.84 937.885 489.315C937.85 488.475 937.885 487.425 937.885 486.445H937.01C934.42 486.48 933.02 486.55 930.43 486.515ZM956.305 467.93C956.305 466.74 957.04 465.2 958.545 465.2C960.155 465.2 960.68 466.39 960.82 467.965L961.03 471.185C961.1 472.165 961.24 472.515 962.43 472.515H973.105C974.295 472.515 976.92 472.585 976.955 474.44C976.99 476.26 974.855 476.295 973 476.295H961.03C960.05 476.295 958.86 476.295 957.915 475.84C956.9 475.35 956.34 474.125 956.34 472.935C956.34 472.445 956.305 469.12 956.305 467.93ZM960.995 489L976.535 489.07C977.55 489.07 978.81 489.7 978.705 491.205C978.6 492.605 977.34 493.06 976.395 493.06H959.455C957.32 493.06 956.585 492.08 956.585 491.03V487.005C956.585 485.675 957.635 484.695 958.615 484.695C960.155 484.695 960.785 485.745 960.855 486.83L960.995 489ZM977.095 478.85C978.705 478.85 980.07 479.235 980.07 480.985C980.07 482.665 978.04 482.875 976.605 482.875L956.62 482.84C955.885 482.84 953.925 482.63 953.925 481.02C953.925 479.55 955.15 478.955 956.55 478.885C959.595 478.745 962.78 478.85 977.095 478.85ZM662.93 511.795C665.73 513.3 666.885 515.925 666.605 519.565C666.325 524.22 664.05 526.495 659.22 526.495C656.665 526.495 655.265 526.705 652.99 525.235C650.785 523.8 650.12 521.245 650.12 518.795C650.12 516.345 650.96 514.07 652.955 512.53C654.6 511.235 656.735 510.605 658.765 510.78C660.62 510.92 661.285 511.06 662.93 511.795ZM652.64 533.81C652.64 529.575 657.89 528.42 664.33 528.42C670.77 528.42 676.02 529.085 676.02 533.81C676.02 538.465 670.77 539.2 664.33 539.2C657.89 539.2 652.64 538.465 652.64 533.81ZM671.54 524.15H670.735C670.07 524.15 668.67 524.01 668.215 523.205C667.97 522.82 667.935 521.77 668.04 521.42C668.145 520.895 668.6 520.475 669.16 520.265C669.545 520.16 671.575 520.16 671.575 520.16C671.575 520.16 671.54 518.795 671.54 518.34H670.735C670.07 518.34 668.67 518.2 668.215 517.395C667.48 516.17 668.285 514.49 669.755 514.42C669.895 514.42 671.61 514.49 671.645 514.315C671.855 513.405 671.4 511.97 672.345 511.27C672.73 510.99 673.29 510.92 673.745 510.885C674.305 510.815 674.865 511.06 675.25 511.48C675.39 511.655 675.53 511.865 675.6 512.075C675.775 512.635 675.705 513.265 675.705 513.86V523.905C675.705 523.94 675.81 526.67 674.9 527.23C674.585 527.405 674.025 527.51 673.675 527.51C673.255 527.51 672.87 527.37 672.52 527.125C672.275 526.95 672.065 526.74 671.925 526.46C671.645 525.935 671.575 524.64 671.54 524.15ZM662.44 519.95C662.44 517.92 662.195 516.205 660.2 515.47C658.065 514.735 654.845 515.4 654.39 518.305C654.11 520.3 654.95 522.47 657.855 522.715C659.815 522.925 661.915 522.295 662.44 519.95ZM671.295 533.81C671.295 532.2 667.585 532.06 664.33 532.06C661.075 532.06 657.575 532.2 657.575 533.81C657.575 535.245 661.075 535.525 664.33 535.525C667.585 535.525 671.295 535.7 671.295 533.81ZM680.929 532.13C681.104 532.06 684.324 532.2 684.919 532.2C684.954 531.64 685.024 529.33 685.094 528.175C684.674 528.07 684.289 527.965 683.904 527.79C681.279 526.705 679.249 524.57 679.249 521.49C679.249 519.81 679.739 518.515 680.544 517.5H680.159C679.039 517.5 678.094 516.66 678.094 515.645C678.094 514.595 679.039 513.755 680.159 513.755H684.779V512.32C684.779 511.41 685.689 510.745 686.809 510.745C687.964 510.745 688.874 511.41 688.874 512.32V513.755H693.704C694.859 513.755 695.804 514.595 695.804 515.645C695.804 516.66 694.859 517.5 693.704 517.5H693.599C694.404 518.515 694.929 519.81 694.929 521.49C694.929 523.66 693.879 525.445 692.129 526.775C691.254 527.405 690.274 527.86 689.259 528.14C689.329 529.225 689.329 531.64 689.329 532.165V532.2H693.984C694.754 532.2 695.384 532.34 695.839 532.62C696.889 533.25 696.854 534.965 696.399 535.805C695.979 536.54 695.069 536.61 694.334 536.61H680.509C680.474 536.61 679.284 536.505 678.654 536.225C678.199 535.98 677.849 535.455 677.744 534.79C677.639 534.055 677.884 533.355 678.339 532.935C679.179 532.235 680.124 532.13 680.929 532.13ZM704.134 522.715H704.204C704.449 522.68 704.659 522.75 704.869 522.75C705.149 522.785 705.394 522.82 705.674 522.855C706.199 522.96 706.759 523.17 707.039 523.695C707.179 523.975 707.249 524.29 707.249 524.64C707.249 524.955 707.249 525.305 707.179 525.62C707.074 525.97 706.969 526.46 706.689 526.705C706.409 526.915 706.059 527.09 705.709 527.16C704.974 527.265 703.714 527.16 702.979 527.195C702.909 527.23 702.874 527.23 702.874 527.23C702.874 527.23 702.874 527.265 702.839 527.37C702.804 528.525 702.839 529.54 702.839 530.73C702.874 531.92 702.874 533.145 702.839 534.3V534.79C702.839 536.015 702.874 537.8 702.034 538.675C701.719 538.955 701.334 539.13 700.879 539.13H700.809C698.534 539.025 698.324 536.295 698.324 534.825V514.035C698.324 513.965 698.254 512.215 699.024 511.445C699.374 511.13 700.109 510.955 700.599 510.955C701.124 510.955 701.614 511.165 701.929 511.48C702.524 512.145 702.594 512.88 702.629 513.65C702.664 513.79 702.664 513.93 702.699 514.105C702.769 514.84 702.769 515.715 702.804 516.555C702.804 517.08 702.839 517.57 702.839 518.06V521.84C702.839 522.085 702.839 522.365 702.909 522.61C702.909 522.645 703.609 522.645 703.679 522.68C703.819 522.68 703.994 522.715 704.134 522.715ZM687.754 524.29C689.259 524.01 690.554 523.275 690.554 521.49C690.554 519.425 688.839 518.655 687.124 518.62C685.374 518.55 683.624 519.285 683.624 521.49C683.624 524.01 685.829 524.675 687.754 524.29ZM720.568 521.595L714.793 526.46C713.918 527.265 712.868 528.245 711.643 528.595C710.803 528.805 709.683 528.525 709.158 527.825C708.423 526.74 709.263 525.725 709.963 524.885C711.363 523.275 712.693 521.84 714.268 520.44C715.283 519.565 718.013 516.87 718.013 516.87C718.013 516.87 717.698 513.09 718.678 512.11C719.273 511.55 720.638 511.41 721.373 511.62C722.458 511.935 722.948 512.775 723.088 513.86C723.158 514.735 722.843 516.38 723.403 517.08C725.118 519.285 728.128 521.98 730.228 524.5C731.243 525.725 732.573 527.685 730.613 528.63C729.248 529.295 727.813 528.315 726.903 527.405L720.568 521.595ZM730.928 532.83C731.068 532.865 731.208 532.83 731.348 532.83C732.118 532.9 732.818 533.075 733.448 533.635C733.763 533.95 733.938 534.37 733.938 534.86C733.938 535.35 733.763 536.05 733.483 536.365C732.748 537.1 731.033 537.03 730.963 537.03H711.363C711.153 537.03 710.908 537.065 710.663 537.065C709.683 537.1 708.423 537.17 707.653 536.505C707.198 536.085 706.918 535.56 706.918 535C706.918 534.3 707.373 533.425 708.073 533.145C709.018 532.795 710.033 532.865 711.048 532.83H711.223C713.463 532.795 715.843 532.795 718.153 532.83L718.118 528.42C718.118 528.42 718.153 527.23 719.098 526.565C720.288 525.69 722.563 526.53 722.563 528.245L722.598 532.83C724.803 532.795 726.378 532.795 728.548 532.83C729.388 532.865 730.193 532.76 730.928 532.83ZM761.291 516.59V534.86C761.326 536.12 761.326 537.59 760.276 538.29C759.926 538.5 759.576 538.64 759.226 538.64C757.616 538.64 757.406 536.12 757.406 534.825V526.285H755.131V535.035C755.201 536.085 755.061 537.38 754.606 538.045C754.326 538.43 753.906 538.64 753.381 538.64C752.856 538.64 752.436 538.36 752.051 538.01C751.246 537.24 751.246 535.98 751.246 534.93V514.21C751.211 512.915 751.386 511.375 752.926 510.99C753.416 510.885 753.871 510.99 754.221 511.375C755.271 512.425 755.131 514.875 755.131 516.94V522.05H757.406V514.525C757.406 513.195 757.161 511.2 759.121 510.99C759.611 510.955 760.031 511.095 760.346 511.445C761.431 512.565 761.291 515.05 761.291 516.59ZM743.021 534.3C743.021 532.2 742.986 531.57 742.986 520.23C742.986 519.46 743.021 518.725 742.916 517.955C742.776 517.115 742.601 516.975 741.761 516.975C739.731 516.94 738.296 516.975 736.476 516.975C734.831 516.975 734.061 516.065 734.061 514.7C734.061 513.37 734.726 512.67 735.916 512.425C736.861 512.18 737.631 512.18 738.646 512.18H743.651C743.896 512.18 744.141 512.215 744.386 512.215C744.981 512.25 745.716 512.355 746.276 512.565C746.626 512.705 747.046 512.95 747.256 513.265C747.711 513.93 747.676 514.42 747.746 515.19C747.851 516.45 747.816 517.78 747.816 519.075V530.275C747.816 530.38 747.886 533.25 747.816 534.755C747.676 536.435 746.731 537.555 745.121 537.555C743.406 537.555 743.021 535.63 743.021 534.3ZM782.189 525.095C781.524 525.165 777.359 525.06 776.589 525.095H776.554C774.909 525.095 773.124 525.13 772.389 524.045C771.584 522.82 771.759 519.985 771.759 519.88C771.759 519.88 771.759 519.075 771.794 517.5C771.829 515.82 771.829 514.735 771.829 514.735C771.829 514.455 771.829 513.09 772.179 512.53C772.599 511.865 772.984 511.62 773.684 511.48C774.209 511.41 775.679 511.34 775.679 511.34H783.239C784.254 511.34 785.444 511.445 786.319 512.005C787.684 512.88 787.439 514.735 787.404 516.065L787.299 521.77C787.264 522.75 787.159 524.325 786.039 524.745C784.814 525.235 783.449 525.095 782.189 525.095ZM794.299 535.42C795.209 535.805 795.944 536.225 796.679 536.82C797.519 537.52 797.239 539.095 796.049 539.34C794.509 539.655 792.864 539.165 791.499 538.57C790.624 538.15 786.144 535.63 785.164 535.245C784.814 535.455 780.544 537.87 780.229 538.045C779.459 538.465 778.619 538.885 777.779 539.165C776.939 539.48 775.959 539.69 775.084 539.48C774.489 539.34 773.859 538.955 773.754 538.395C773.684 538.115 773.754 537.835 773.824 537.59C773.999 536.855 774.734 536.435 775.434 536.085C776.239 535.63 777.079 535.245 777.919 534.825C778.794 534.405 779.634 533.985 780.474 533.53C780.579 533.46 782.679 532.48 782.714 532.305H777.079C777.079 532.305 774.629 532.13 774.349 530.905C774.244 529.96 774.699 528.875 775.819 528.77H783.169C783.204 528 783.239 527.51 783.624 526.845C784.149 525.9 785.234 525.48 786.214 525.97C787.159 526.425 787.439 527.44 787.544 528.525V528.77H792.514C794.159 528.77 796.049 528.7 796.294 530.345C796.119 532.34 794.299 532.375 792.759 532.305H788.104C788.454 532.515 793.844 535.35 794.299 535.42ZM796.119 513.93V524.71C796.119 524.745 795.979 526.11 795.069 526.705C794.754 526.88 794.439 526.985 794.089 526.985C793.669 526.985 793.284 526.845 792.934 526.6C792.689 526.425 792.479 526.18 792.339 525.865C791.639 524.465 791.919 522.4 791.919 520.86C791.954 518.865 791.954 516.87 791.954 514.91V514.455C791.919 513.93 791.919 513.335 792.059 512.81C792.164 512.425 792.374 512.075 792.689 511.69C793.074 511.235 793.809 510.99 794.579 511.095C795.244 511.2 795.769 511.55 795.979 512.005C796.259 512.6 796.154 513.755 796.119 513.93ZM782.014 515.785L778.059 515.715C777.639 515.715 777.289 515.715 777.009 515.785C776.624 515.82 776.449 515.925 776.204 516.205C776.029 516.45 776.029 517.395 776.029 517.5C775.994 519.845 776.064 519.32 776.064 519.32C776.064 519.355 775.924 520.195 776.344 520.72C776.729 521.175 776.974 521.175 777.814 521.175C779.774 521.14 779.984 521.105 781.244 521.105C781.629 521.105 782.014 521.14 782.399 521.07C782.784 521.035 782.889 520.825 782.959 520.545C782.994 520.405 783.099 519.915 783.099 519.74L783.169 517.395C783.134 517.045 783.204 516.625 783.099 516.275C782.924 515.785 782.434 515.785 782.014 515.785ZM812.661 527.3C811.751 527.51 812.031 528.525 812.031 529.155C812.031 529.715 812.031 531.08 812.101 531.71C812.101 531.99 812.031 532.62 812.241 532.83C812.241 532.9 812.381 532.97 812.451 532.97C813.501 532.97 814.971 532.97 816.021 532.9C817.666 532.9 819.556 532.83 821.166 532.97C821.796 533.04 822.146 533.32 822.356 533.67C822.636 534.02 822.706 534.51 822.706 535C822.776 535.56 822.566 536.085 822.356 536.365C822.146 536.645 821.796 536.855 821.446 537.065C820.536 537.485 819.626 537.345 818.646 537.415C817.806 537.415 816.616 537.485 815.741 537.415C815.041 537.345 814.061 537.415 813.431 537.415C812.801 537.345 812.171 537.415 811.541 537.415C810.421 537.345 809.231 537.275 808.321 536.645C807.936 536.435 807.726 536.085 807.586 535.7C807.306 535.14 807.166 534.37 807.236 533.74C807.306 531.64 807.166 528.735 807.166 526.53C807.166 525.69 807.026 524.64 807.446 523.94C808.251 522.61 809.581 522.89 810.841 522.89H814.061C814.621 522.89 816.161 522.89 816.756 522.75C816.966 522.68 817.106 522.54 817.176 522.33C817.386 521.14 817.386 519.53 817.316 518.34C817.316 517.85 817.386 516.87 817.106 516.45C816.966 516.24 816.616 516.1 816.021 516.1L809.511 516.17C808.881 516.17 807.936 516.03 807.516 515.54C807.376 515.33 807.236 515.12 807.096 514.77C806.746 513.51 807.376 512.355 808.671 512.075C809.791 511.865 810.911 512.005 812.031 511.935H817.316C818.226 511.935 819.276 511.865 820.186 512.145C820.676 512.285 821.096 512.635 821.446 513.195C821.516 513.405 821.586 513.58 821.656 513.86C821.726 514.07 821.796 514.28 821.796 514.49C821.866 515.26 821.866 516.52 821.866 517.22C821.866 518.69 821.936 520.475 821.936 521.98C821.936 523.52 822.006 525.06 821.586 526.11C821.376 526.53 821.026 526.88 820.606 527.02C819.836 527.37 818.786 527.23 818.016 527.23C816.966 527.23 815.111 527.3 814.271 527.3C813.501 527.3 813.431 527.16 812.661 527.3ZM831.736 535.84C831.666 536.4 831.631 536.925 831.456 537.485C831.386 537.66 831.316 537.8 831.246 537.975C831.106 538.255 830.896 538.535 830.616 538.745C830.091 539.06 829.426 539.13 828.831 538.99C828.481 538.92 828.166 538.78 827.921 538.57C827.081 537.8 827.116 535.98 827.116 535.91V515.295C827.081 514.21 827.116 512.46 827.781 511.83C828.271 511.34 828.866 511.27 829.496 511.27C830.301 511.27 831.036 511.76 831.316 512.53C831.736 513.51 831.701 514.595 831.736 515.68V515.855C831.841 519.425 831.736 522.365 831.736 525.725V534.58C831.736 535 831.771 535.42 831.736 535.84ZM855.765 513.51V521.525C855.765 522.26 855.765 522.89 855.695 523.38C855.555 524.64 854.855 525.41 853.525 525.69C853.175 525.69 852.895 525.76 852.545 525.76H844.005C843.725 525.69 843.305 525.69 842.815 525.69H837.355C836.83 525.62 836.41 525.48 836.06 525.13C835.78 524.92 835.57 524.64 835.43 524.29C835.29 523.94 835.22 523.59 835.15 523.24C835.08 522.89 835.01 522.61 835.01 522.33C834.94 522.05 834.94 521.91 834.94 521.84V514.28C834.87 513.86 834.94 513.37 835.01 512.95C835.15 512.46 835.36 512.11 835.64 511.9C835.92 511.76 836.34 511.62 836.83 511.55C837.285 511.55 838.055 511.62 838.545 511.76C839.035 511.9 839.245 512.18 839.315 512.67C839.385 512.74 839.385 512.95 839.385 513.23V514.21C839.385 515.295 839.245 515.855 840.435 515.925C841.205 515.995 841.765 515.925 842.535 515.925H849.85C850.69 515.925 851.355 515.995 851.355 515.085C851.355 514.14 851.215 512.81 851.775 512.04C851.915 511.83 852.545 511.62 852.965 511.55C853.105 511.55 853.315 511.48 853.525 511.48H854.225C855.415 511.62 855.765 512.39 855.765 513.51ZM834.31 532.235C833.89 532.095 833.47 531.885 833.19 531.465C832.98 531.115 832.84 530.695 832.84 530.275C832.84 529.855 833.05 529.365 833.33 529.015C833.47 528.77 833.68 528.63 833.96 528.56C834.24 528.49 834.52 528.42 834.73 528.35H835.78L854.435 528.14H855.555C855.905 528.21 856.325 528.28 856.605 528.42C856.955 528.56 857.235 528.77 857.445 529.015C857.655 529.295 857.795 529.645 857.795 530.135C857.795 530.695 857.585 531.115 857.235 531.395C856.815 531.675 856.395 531.885 855.835 532.025C855.345 532.165 854.785 532.235 854.225 532.235H852.825C852.615 532.235 852.405 532.305 852.195 532.305C852.265 533.075 852.195 534.475 852.265 534.965C852.265 535.595 852.265 536.68 852.125 537.24C852.055 538.08 851.845 538.92 851.04 539.34C850.2 539.97 848.45 539.69 848.03 538.64C847.68 537.87 847.68 536.89 847.61 536.015V532.305H843.165V535.875C843.235 536.4 843.165 536.89 843.095 537.52C843.025 537.94 843.025 538.29 842.745 538.71C842.395 539.48 841.625 539.76 840.855 539.76C840.365 539.76 840.015 539.62 839.665 539.48C838.545 538.85 838.615 537.17 838.615 536.12L838.545 532.445H835.85C835.29 532.445 834.8 532.375 834.31 532.235ZM851.215 522.05C851.565 521.735 851.425 520.615 851.425 520.195C851.425 520.055 851.355 519.915 851.285 519.845C851.145 519.635 850.9 519.565 850.69 519.565C849.92 519.425 849.08 519.495 848.31 519.495C845.44 519.635 843.165 519.215 840.365 519.425C840.085 519.495 839.875 519.565 839.665 519.705C839.175 519.985 839.385 521.175 839.455 521.595C839.525 521.84 839.595 521.98 839.805 522.05C839.945 522.19 840.155 522.19 840.365 522.26C840.575 522.26 840.995 522.33 841.205 522.33H849.15C849.71 522.33 850.76 522.47 851.215 522.05ZM887.648 534.965C887.648 536.12 887.613 536.61 887.263 537.695C887.018 538.395 886.633 538.92 885.618 538.92C885.338 538.92 884.848 538.85 884.603 538.675C883.658 538.08 883.623 535.91 883.623 535.21V526.81L882.083 526.775C881.278 526.74 879.948 526.425 879.843 525.025C879.773 524.185 879.843 523.1 880.893 522.61C881.313 522.4 881.908 522.33 882.363 522.365L883.623 522.33V514.245C883.623 513.65 883.588 512.985 883.728 512.39C883.798 512.18 883.868 511.97 883.973 511.76C884.253 511.305 884.463 511.06 884.988 510.885C885.198 510.815 885.513 510.78 885.723 510.78C886.493 510.78 886.948 511.165 887.333 511.83C887.683 512.425 887.648 514.105 887.648 514.28C887.683 531.29 887.648 534.965 887.648 534.965ZM893.213 537.94C893.073 538.255 892.863 538.5 892.548 538.71C892.058 539.025 891.708 539.095 891.113 538.955C889.713 538.64 889.433 537.1 889.433 535.91V514.63C889.398 513.58 889.433 511.83 890.063 511.2C890.588 510.745 890.973 510.675 891.603 510.675C892.408 510.675 892.968 511.165 893.248 511.9C893.668 512.88 893.633 513.93 893.668 514.98V515.155C893.773 518.69 893.668 522.575 893.668 525.865V534.615C893.668 535.84 893.668 536.96 893.213 537.94ZM882.013 515.96C881.943 516.065 881.803 516.135 881.628 516.205C880.858 516.59 880.193 516.275 879.353 516.485C879.458 517.115 879.458 517.675 879.458 518.06V533.075C879.458 533.005 880.963 533.32 881.138 533.355C882.153 533.53 882.713 533.74 882.573 535.105C882.398 537.38 881.208 536.925 879.563 536.96C878.478 536.995 877.393 536.96 876.378 536.96C874.733 536.96 874.138 536.96 872.563 536.995C871.443 536.995 870.358 536.995 869.238 536.96C868.188 536.96 866.508 536.68 866.333 535.175C866.123 533.04 868.258 533.285 869.483 533.145C869.448 532.27 869.448 529.505 869.448 528.665V518.55C869.448 518.41 869.343 517.5 869.378 516.485C868.118 516.415 867.138 516.625 866.508 515.19C865.983 514.105 866.613 513.09 867.523 512.74C868.503 512.355 869.448 512.32 870.463 512.32C873.858 512.32 876.203 512.355 879.633 512.355C880.438 512.355 881.558 512.495 882.153 513.23C882.748 513.93 882.748 515.365 882.013 515.96ZM873.753 516.485C873.473 516.45 873.438 516.695 873.438 517.01C873.403 517.465 873.368 518.235 873.403 518.9L873.438 532.41C873.438 532.55 873.473 533.04 873.823 533.075H875.398V519.565C875.398 519.53 875.398 517.5 875.328 516.905C875.328 516.765 875.363 516.555 875.083 516.485H873.753ZM902.841 510.99C903.436 510.99 903.996 511.06 904.556 511.13C905.431 511.27 906.236 511.69 906.901 512.355C909.176 514.735 909.666 518.83 909.806 522.155C909.911 524.29 909.876 526.46 909.631 528.56C909.386 530.73 909.071 533.075 907.916 534.86C906.936 536.365 905.396 537.345 903.821 537.66C902.386 537.94 900.811 537.765 899.481 536.995C898.221 536.26 897.381 535.105 896.751 533.635C896.296 532.55 896.016 531.36 895.946 530.17C895.771 528.21 895.701 526.25 895.701 524.29C895.701 522.96 895.771 521.665 895.911 520.37C895.981 519.32 896.086 518.235 896.261 517.22C896.436 516.38 896.541 515.645 896.891 514.875C897.241 514.105 897.696 513.37 898.291 512.81C899.306 511.795 900.636 511.235 901.966 511.06C902.246 511.025 902.561 511.025 902.841 510.99ZM919.816 536.05C919.746 536.61 919.711 537.135 919.536 537.695C919.466 537.87 919.396 538.01 919.326 538.185C919.186 538.465 918.976 538.745 918.696 538.955C918.171 539.27 917.506 539.34 916.911 539.2C916.561 539.13 916.246 538.99 916.001 538.78C915.161 538.01 915.196 536.19 915.196 536.12V514.945C915.161 513.86 915.196 512.11 915.861 511.48C916.351 510.99 916.946 510.92 917.576 510.92C918.381 510.92 919.116 511.41 919.396 512.18C919.816 513.16 919.781 514.245 919.816 515.33V515.505C919.921 519.075 919.816 523.03 919.816 526.39V534.79C919.816 535.21 919.851 535.63 919.816 536.05ZM902.736 533.005C903.156 533.005 903.611 532.865 904.031 532.585C904.801 532.025 905.081 531.045 905.291 529.925C905.676 527.79 905.641 525.2 905.571 522.995C905.536 521.21 905.501 518.9 904.661 517.465C904.206 516.695 903.506 516.205 902.771 516.31C902.001 516.38 901.301 516.87 900.881 517.78L900.566 518.515C900.286 519.39 900.146 520.37 900.076 521.315C900.006 522.26 899.936 523.24 899.936 524.185C899.971 525.13 899.866 526.005 899.936 526.915C900.111 529.33 900.426 532.97 902.736 533.005ZM936.016 512.53C937.906 512.53 939.271 512.705 940.076 514.035C940.461 514.665 940.496 515.33 940.251 515.925C939.936 516.555 939.306 516.975 938.501 517.08C937.381 517.255 936.051 517.255 933.706 517.185C933.636 518.795 933.706 520.755 933.706 521.035V524.955C933.706 525.34 933.776 526.11 933.811 526.425C934.161 526.81 934.966 527.685 935.351 528.14C935.806 528.7 936.296 529.295 936.821 530.03C937.171 530.45 937.486 530.905 937.696 531.22C938.571 532.48 939.691 534.055 940.006 535.525C940.146 536.155 940.076 537.065 939.516 537.555C939.131 537.905 938.676 538.08 938.186 538.08C937.101 538.08 936.051 537.345 935.456 536.715C934.581 535.77 933.811 534.72 933.076 533.74C932.551 533.005 931.991 532.27 931.396 531.57C931.361 531.5 931.326 531.43 931.256 531.395C931.256 531.43 931.221 531.43 931.221 531.465C930.976 531.85 930.661 532.2 930.416 532.55C930.066 532.97 929.751 533.425 929.471 533.845C928.841 534.825 928.211 535.805 927.371 536.645C926.356 537.66 925.411 538.15 924.536 538.15C924.326 538.15 924.081 538.115 923.871 538.045C923.346 537.905 922.961 537.555 922.786 537.065C922.436 536.295 922.611 535.245 922.926 534.545C923.311 533.74 923.801 533.075 924.291 532.375C924.606 531.955 924.921 531.535 925.166 531.115C926.041 529.715 928.246 527.055 928.736 526.425V517.185H926.601C924.851 517.185 924.326 517.15 924.011 517.08C923.171 516.94 922.506 516.38 922.226 515.575C921.981 514.875 922.086 514.14 922.506 513.615C922.891 513.09 923.521 512.705 924.186 512.565C924.431 512.53 924.641 512.495 924.921 512.495C925.096 512.495 925.271 512.495 925.411 512.53H936.016ZM947.811 536.12C947.741 536.68 947.706 537.205 947.531 537.765C947.461 537.94 947.391 538.08 947.321 538.255C947.181 538.535 946.971 538.815 946.691 539.025C946.166 539.34 945.501 539.41 944.906 539.27C944.556 539.2 944.241 539.06 943.996 538.85C943.156 538.08 943.191 536.26 943.191 536.19V514.945C943.156 513.86 943.191 512.11 943.856 511.48C944.346 510.99 944.941 510.92 945.571 510.92C946.376 510.92 947.111 511.41 947.391 512.18C947.811 513.16 947.776 514.245 947.811 515.33V515.505C947.916 519.075 947.811 523.03 947.811 526.39V534.86C947.811 535.28 947.846 535.7 947.811 536.12Z" fill="#595959"/>
<defs>
<linearGradient id="paint0_linear_28_105" x1="0" y1="480" x2="1920" y2="480" gradientUnits="userSpaceOnUse">
<stop stop-color="#B4CAE4"/>
<stop offset="0.265" stop-color="#E3D4CF"/>
<stop offset="0.51" stop-color="#D5C0B9"/>
<stop offset="0.78" stop-color="#C69DC5"/>
<stop offset="1" stop-color="#7B82BE"/>
</linearGradient>
<linearGradient id="paint1_linear_28_105" x1="625" y1="279" x2="625" y2="719" gradientUnits="userSpaceOnUse">
<stop stop-color="white" stop-opacity="0.5"/>
<stop offset="0.5" stop-color="white" stop-opacity="0.3"/>
<stop offset="1" stop-color="white" stop-opacity="0"/>
</linearGradient>
<linearGradient id="paint2_linear_28_105" x1="1428.44" y1="249.343" x2="1428.44" y2="857.734" gradientUnits="userSpaceOnUse">
<stop stop-color="white" stop-opacity="0.3"/>
<stop offset="0.5" stop-color="white" stop-opacity="0.1"/>
<stop offset="1" stop-color="white" stop-opacity="0"/>
</linearGradient>
<linearGradient id="paint3_linear_28_105" x1="594" y1="328" x2="1327" y2="328" gradientUnits="userSpaceOnUse">
<stop stop-color="#FF2567"/>
<stop offset="1" stop-color="#006299"/>
</linearGradient>
</defs>
</svg>
